<svg xmlns="http://www.w3.org/2000/svg" xmlns:xlink="http://www.w3.org/1999/xlink" width="45" height="17" viewBox="0 0 45 17">
    <defs>
        <filter id="9f8fptbtta" color-interpolation-filters="auto">
            <feColorMatrix in="SourceGraphic" values="0 0 0 0 0.607843 0 0 0 0 0.607843 0 0 0 0 0.607843 0 0 0 1.000000 0"/>
        </filter>
        <path id="1s4fd69dlb" d="M0 0L39 0 39 11 0 11z"/>
    </defs>
    <g fill="none" fill-rule="evenodd">
        <g>
            <g>
                <g filter="url(#9f8fptbtta)" transform="translate(-535 -596) translate(395 117) translate(40 453)">
                    <g>
                        <g>
                            <g>
                                <g transform="translate(0 26) translate(100) translate(3 3)">
                                    <mask id="9l53pnekxc" fill="#fff">
                                        <use xlink:href="#1s4fd69dlb"/>
                                    </mask>
                                    <path fill="#FEFEFE" fill-rule="nonzero" d="M11.53 10.949c-.86 0-1.719-.002-2.578 0 .859-.002 1.718 0 2.578 0h2.706-2.706m22.135-1.685c-.099-.146-.222-.279-.356-.397-.028-.025-.051-.051-.064-.085-.009-.025-.014-.051-.036-.068-.091-.072-.185-.14-.222-.258-.005-.015-.03-.025-.046-.035-.014-.008-.038-.01-.043-.02-.055-.123-.172-.193-.246-.298-.017-.024-.023-.058-.044-.075-.211-.173-.351-.409-.543-.599-.08-.08-.13-.189-.231-.249-.04-.023-.026-.072-.048-.104-.079-.119-.209-.122-.324-.125-.09-.002-.126.102-.184.163-.086.092-.157.199-.253.279-.049.04-.103.067-.113.136-.002.012-.01.029-.019.034-.113.06-.164.179-.25.263-.132.131-.251.273-.37.415-.083.099-.205.172-.241.313-.01.043-.103.043-.12.093-.048.143-.225.177-.264.325-.003.013-.023.026-.037.029-.096.016-.147.077-.173.165-.009.03-.034.035-.059.045-.065.027-.122.064-.137.14-.006.035-.027.05-.06.053-.085.006-.17.018-.254.018-1.702 0-3.405.002-5.107 0-.272-.001-.281-.016-.283-.289-.007-1.212-.003-2.425-.003-3.637V1.898v-.079c.008-.194.039-.224.23-.224h5.559c.073 0 .135.004.171.081.012.024.04.045.066.057.056.027.1.06.103.13 0 .011.008.03.017.034.182.09.169.332.337.435.033.02.056.067.067.107.02.068.076.098.122.144.084.085.15.186.243.27.06.054.066.17.183.181.03.003.028.032.028.055 0 .09.053.137.136.154.035.007.065.014.06.059-.009.118.088.175.148.253.001.003.007.003.008.005.063.155.233.23.292.386.02.057.065.09.113.097.066.01.113.036.158.081.051.053.105.058.154-.01.045-.06.127-.095.137-.184.001-.015.023-.032.04-.04.098-.05.155-.125.151-.24 0-.006.003-.016.007-.018.104-.04.132-.147.198-.218.057-.06.116-.124.177-.178.13-.112.21-.264.333-.379.024-.022.05-.045.066-.072.043-.079.083-.147.161-.21.08-.064.116-.189.228-.235.013-.164.178-.217.258-.334.103-.151.243-.29.392-.409.03-.023.061-.02.094-.02h1.702c.042 0 .097-.008.11.04.011.037-.023.077-.053.109-.074.08-.164.152-.174.274-.001.019-.017.027-.031.035-.017.01-.042.015-.05.03-.07.14-.224.212-.289.355-.016.036-.038.065-.073.089-.114.077-.146.221-.25.309-.093.077-.164.184-.228.278-.082.12-.202.208-.266.34-.015.03-.045.058-.074.076-.06.039-.088.102-.131.151-.108.122-.196.255-.292.385-.049.065-.123.114-.145.2-.008.03-.033.039-.056.05-.06.032-.108.073-.127.142-.011.039-.038.066-.074.088-.054.033-.096.078-.115.142-.004.015-.01.035-.022.042-.14.08-.186.242-.302.343-.06.053-.11.113-.125.194-.007.036-.03.053-.058.073-.113.081-.16.26.021.332.032.013.048.04.054.077.007.04.016.084.049.115.163.151.259.361.421.506.123.109.16.287.321.356.025.01.03.04.036.067.006.028.016.068.037.077.13.061.14.212.233.298.111.104.17.252.3.338.049.032.042.098.077.131.084.079.16.157.224.256.046.073.11.145.169.212.13.145.233.31.366.453.085.091.206.176.245.312.001.007.004.014.01.017.142.093.187.267.31.377.044.038.109.084.08.152-.028.068-.103.042-.16.042H34c-.143 0-.247-.048-.335-.176m-19.182-2.82c-.01-.119.014-.24-.036-.358-.022-.052-.051-.098-.099-.115-.07-.025-.082-.07-.085-.135-.004-.128-.004-.26-.15-.324-.03-.014-.022-.044-.026-.069-.029-.156-.042-.317-.185-.428-.053-.04-.044-.12-.05-.183-.01-.116-.04-.218-.141-.287-.053-.037-.05-.098-.055-.15-.01-.122-.029-.233-.156-.293-.05-.023-.04-.076-.043-.122-.006-.13-.013-.258-.107-.367-.044-.05-.086-.06-.136-.041-.055.021-.124.036-.128.117-.002.03 0 .059 0 .088l-.002 5.486c0 .158.015.14-.144.14-1.154.002-2.309 0-3.463.004-.085 0-.117-.027-.128-.105-.022-.137-.037-.274-.15-.382-.065-.061-.05-.166-.068-.251-.021-.107-.055-.203-.126-.292-.075-.093-.066-.221-.09-.335-.02-.088-.045-.17-.112-.234-.027-.026-.039-.06-.048-.095-.015-.063-.033-.125-.067-.183-.05-.081-.114-.115-.21-.115-1.122.002-2.244 0-3.366 0-.197 0-.316.096-.36.291-.029.123-.053.242-.142.344-.075.085-.059.21-.087.316-.01.041-.013.086-.04.12-.1.123-.145.267-.166.421-.009.067-.039.118-.083.17-.05.059-.073.138-.086.216-.024.136-.038.148-.18.148H2.523c-.049 0-.097-.003-.146-.015-.135-.031-.134-.027-.056-.132.05-.067.056-.152.078-.23.026-.09.039-.18.108-.256.09-.098.083-.237.127-.356.007-.021.005-.047.025-.062.114-.084.132-.211.157-.337.015-.074.041-.14.096-.199.062-.067.087-.16.098-.252.011-.092.039-.174.107-.245.098-.103.092-.247.127-.375.008-.029.01-.059.035-.078.075-.056.104-.138.127-.225.024-.092.039-.18.133-.248.07-.051.083-.165.097-.258.011-.07.031-.123.087-.176.09-.085.116-.208.13-.33.009-.073.033-.132.093-.183.093-.08.095-.198.103-.307.007-.082.02-.144.099-.196.083-.054.098-.16.099-.255.001-.129.023-.242.126-.336.073-.066.058-.177.091-.264.01-.027.01-.066.03-.081.122-.102.136-.249.165-.388.017-.082.048-.15.108-.212.092-.095.08-.23.111-.349.008-.028.002-.06.032-.078.127-.077.132-.208.147-.334.006-.044-.017-.095.027-.13.138-.107.166-.266.203-.42.01-.04.023-.074.051-.103.099-.102.119-.237.145-.368.012-.065.04-.083.103-.086.714-.04 1.43-.008 2.143-.017.068 0 .137.012.205.019.05.005.062.045.07.083.025.132.041.264.156.359.042.035.032.103.043.157.024.112.048.221.144.302.054.046.06.122.072.189.02.127.044.252.148.342.039.034.035.084.046.127.03.12.053.236.158.326.045.04.047.131.06.2.024.122.055.237.161.315.032.023.037.057.038.095.003.14.03.27.142.373.062.057.052.151.07.228.024.092.053.174.125.238.056.05.06.124.071.19.02.125.049.242.151.329.044.036.04.095.05.145.024.112.046.222.142.303.063.054.052.144.074.218.03.103.047.208.134.288.047.043.055.116.064.181.018.118.041.23.14.314.076.063.056.163.074.247.018.083.046.16.103.218.06.061.083.134.095.21.018.116.052.222.14.305.046.045.038.11.054.165.032.116.05.234.16.313.042.03.027.098.04.147.03.102.027.214.106.3.075.08.18.122.254.209.033.04.06-.023.068-.052.015-.07.03-.14.03-.213-.002-2.3-.002-4.6-.002-6.901 0-.251 0-.251.25-.251h2.45c.14 0 .279.108.31.244.035.145.053.292.176.405.045.04.043.132.06.202.018.078.058.14.115.2.073.073.074.182.097.278.014.056.028.108.073.144.07.056.092.135.106.215.015.089.034.175.102.238.08.074.094.174.117.272.02.09.046.175.132.232.068.045.044.132.061.2.024.1.05.19.135.262.066.056.063.154.082.235.019.082.043.156.109.213.063.055.072.136.09.211.023.097.053.188.126.26.049.05.063.113.071.179.012.097.047.183.122.25.049.043.067.096.079.161.02.117.04.235.147.32.058.047.04.14.064.21.011.034.012.07.022.105.03.106.122.143.224.114.166-.048.247-.156.272-.321.012-.087.04-.166.105-.236.091-.096.084-.236.126-.355.008-.02.006-.048.026-.062.13-.09.141-.243.192-.375.007-.018.007-.043.02-.053.14-.103.146-.262.176-.411.005-.027.006-.053.028-.07.117-.093.153-.224.169-.363.003-.027.005-.054.031-.068.113-.062.147-.171.163-.286.012-.087.034-.162.102-.225.06-.057.088-.137.096-.22.004-.043.016-.085.046-.104.156-.1.171-.26.19-.42.004-.037.004-.077.039-.095.151-.076.146-.221.156-.355.006-.084.01-.152.09-.21.098-.071.089-.197.108-.304.008-.046.024-.074.062-.102.076-.055.096-.143.12-.23.021-.08.016-.174.105-.23.038-.024.073-.038.117-.038l2.735.001c.086 0 .14.06.15.165.004.03.001.06.001.089v3.647c0 1.223 0 2.445.002 3.668 0 .072-.017.136-.05.194-.043.075-.126.06-.193.062-.25.004-.499.002-.748.002l-.807-.001c-.068-.001-.137-.011-.204-.02-.039-.006-.057-.029-.068-.072-.028-.114 0-.226 0-.34.003-1.619.003-3.237 0-4.856 0-.106 0-.217-.056-.314-.027-.047-.064-.091-.12-.093-.06-.003-.083.056-.11.1-.014.024-.02.054-.027.083-.027.121-.055.236-.15.332-.097.098-.073.246-.104.37-.01.045-.022.075-.06.104-.111.086-.109.224-.135.346-.012.06-.034.108-.074.155-.099.117-.114.267-.146.41-.006.025-.001.055-.025.071-.135.097-.137.252-.172.392-.006.026-.01.051-.032.069-.106.09-.123.216-.146.34-.016.084-.038.162-.103.228-.088.088-.103.21-.112.326-.006.083-.026.153-.091.208-.087.072-.086.18-.106.277-.016.08-.042.148-.102.207-.093.091-.08.223-.113.338-.016.058-.032.106-.078.15-.084.08-.1.195-.12.304-.012.059-.027.11-.068.158-.102.116-.121.265-.148.41-.01.058-.032.103-.074.144-.02.02-.045.043-.052.07-.03.115-.116.136-.214.12-.18-.03-.36-.016-.539-.015-.225.002-.452-.02-.677.016-.083.013-.163-.013-.239-.043-.106-.041-.108-.151-.128-.238-.024-.102-.044-.197-.13-.265-.039-.03-.045-.079-.053-.124-.023-.132-.054-.257-.153-.362-.068-.072-.052-.185-.081-.278-.016-.05-.03-.105-.07-.138-.088-.074-.11-.177-.127-.28-.013-.08-.038-.156-.093-.211-.07-.071-.087-.158-.105-.247-.018-.088-.049-.172-.115-.233-.056-.052-.072-.114-.082-.182-.017-.116-.044-.225-.15-.295-.037-.024-.026-.064-.028-.1m24.36 4.22c-.038-.02-.065-.038-.074-.082-.012-.07-.05-.12-.12-.142-.026-.008-.04-.03-.054-.053-.108-.192-.242-.365-.396-.522-.02-.021-.05-.044-.053-.068-.01-.075-.065-.112-.115-.152-.1-.08-.12-.228-.244-.288-.002-.001-.001-.007-.003-.01-.085-.175-.228-.31-.352-.452-.092-.106-.196-.216-.269-.325-.081-.12-.214-.202-.263-.35-.025-.072-.12-.109-.155-.187-.066-.15-.23-.227-.291-.382-.01-.027-.047-.032-.073-.046-.03-.016-.071-.029-.07-.074.004-.087-.055-.126-.119-.163-.023-.013-.044-.023-.057-.05-.092-.202-.226-.373-.39-.521-.026-.024-.047-.056-.06-.088-.057-.138-.195-.21-.268-.338-.028-.048-.094-.087-.12-.152-.011-.026-.03-.053-.052-.07-.144-.117-.184-.32-.352-.415-.007-.005-.013-.015-.016-.024-.019-.077-.06-.137-.13-.175-.037-.02-.047-.063-.016-.08.11-.059.13-.185.214-.263.079-.074.15-.156.184-.261.008-.024.02-.04.044-.048.071-.025.109-.08.128-.15.008-.03.014-.064.043-.074.151-.05.148-.252.298-.302.032-.13.146-.197.224-.291.133-.16.241-.338.39-.487.07-.071.133-.147.206-.218.078-.075.132-.183.227-.251.014-.01.024-.033.027-.051.009-.042.034-.073.066-.095.145-.101.231-.26.33-.394.067-.09.118-.198.2-.285.03-.031.026-.089.068-.115.134-.083.2-.229.305-.339.152-.16.26-.356.42-.514.073-.071.122-.17.202-.247.048-.045.08-.115.14-.157.04-.029.071-.06.093-.108.02-.043.054-.083.092-.111.062-.047.108-.106.142-.173.033-.065.075-.118.136-.162.07-.05.102-.126.086-.215-.018-.102-.101-.12-.182-.138-.028-.007-.058-.002-.088-.002h-5.392c-.027 0-.054-.005-.079 0-.09.021-.207-.003-.255.095-.066.133-.192.207-.279.32-.113.15-.201.325-.364.435-.031.022-.044.056-.053.092-.01.044-.043.062-.077.09-.111.092-.188.22-.3.315-.007.005-.006.018-.007.028-.006.048-.037.08-.077.094-.059.02-.088.063-.116.113-.046.082-.083.09-.153.026-.068-.06-.131-.127-.183-.204-.075-.113-.167-.223-.265-.304-.113-.093-.11-.283-.283-.313-.005-.001-.006-.024-.009-.037-.025-.106-.097-.18-.167-.259-.09-.102-.194-.198-.261-.31-.08-.135-.183-.175-.32-.18-.058-.003-.118-.002-.177-.002h-9.466l-2.244.001c-.1 0-.202.009-.216.144-.001.01-.012.025-.022.029-.141.062-.144.198-.17.32-.009.036-.009.083-.04.097-.118.05-.114.16-.143.258-.019.068.008.156-.06.2-.116.077-.135.192-.154.313-.01.06-.004.129-.06.17-.09.07-.12.164-.138.27-.013.076.002.18-.063.219-.119.07-.125.183-.15.292-.017.069-.019.143-.106.17-.032.01-.04.049-.052.08-.03.08-.05.162-.058.247-.004.034-.006.073-.039.084-.065.022-.1.07-.133.122-.013.02-.027.043-.053.035-.023-.008-.01-.034-.014-.052-.029-.135-.024-.282-.14-.386-.036-.033-.054-.073-.065-.124-.026-.126-.046-.258-.148-.353-.04-.038-.055-.08-.064-.136-.022-.136-.026-.284-.173-.363-.025-.014-.015-.048-.021-.073-.026-.1-.012-.223-.102-.286-.096-.067-.11-.163-.139-.255-.027-.086-.06-.164-.128-.225-.025-.022-.043-.055-.04-.087.017-.25-.199-.402-.26-.619-.01-.037-.056-.067-.107-.076-.049-.009-.096-.016-.146-.016H9.987c-.242.02-.304.09-.309.328-.007.344.023.688-.017 1.03-.006.05-.003.12-.054.121-.038 0-.038-.077-.046-.124-.02-.116-.044-.23-.152-.304-.038-.026-.038-.072-.045-.115-.018-.108-.008-.23-.096-.31C9.185.551 9.16.458 9.15.357 9.127.132 8.993.004 8.763.003 7.408.003 6.053.006 4.698 0c-.169 0-.37.18-.373.337-.003.089-.02.179-.092.24-.07.06-.09.136-.108.221-.017.089.004.198-.067.26-.104.091-.134.201-.148.327-.008.078-.032.153-.1.206-.062.05-.074.125-.097.198-.03.098-.005.218-.1.294-.078.063-.1.15-.113.242-.012.088-.026.171-.104.233-.046.037-.065.094-.075.155-.022.137-.032.279-.158.376-.039.03-.044.091-.06.141-.03.09-.007.2-.085.272-.09.084-.128.188-.127.307 0 .077-.024.144-.08.193-.079.07-.1.161-.121.26-.017.08.01.18-.064.24-.114.091-.129.22-.15.349-.007.039-.009.081-.042.106-.093.072-.119.173-.138.282-.02.114-.033.233-.142.31-.036.024-.042.069-.054.11-.03.101-.015.218-.103.3-.07.065-.098.15-.113.244-.012.073.004.167-.05.215-.148.131-.162.305-.185.48-.004.027-.01.053-.033.067-.096.06-.12.156-.146.255-.02.077-.004.166-.076.227-.074.062-.104.148-.12.24-.018.107-.041.213-.122.292-.047.047-.059.105-.077.165-.029.09-.004.202-.085.273-.093.08-.117.183-.13.295-.008.075-.014.152-.076.207-.067.06-.097.138-.118.22-.032.128-.04.265-.15.361-.015.014-.02.04-.029.06-.05.135-.047.294-.18.391-.012.01-.013.036-.018.055-.03.113-.032.246-.096.334-.076.104-.12.212-.162.328-.079.22-.008.327.223.329H4.87c.056 0 .112.002.168-.001.146-.008.203-.065.24-.209.015-.059-.014-.137.04-.176.114-.078.13-.195.155-.314.02-.1.017-.21.098-.29.063-.064.076-.148.098-.23.02-.078.011-.169.066-.232.07-.08.106-.172.126-.272.04-.196.1-.258.298-.26.393-.006.787-.006 1.18 0 .208.002.223.023.299.235.01.027.024.06.046.073.09.056.093.147.111.236.022.108.005.236.09.315.097.09.106.2.125.314.014.09.013.19.085.256.08.072.103.157.112.26.015.178.071.256.187.273.084.012.168.023.253.023 1.772-.002 3.543-.001 5.314-.001.122 0 .244.009.364-.003.139-.014.297 0 .378-.196.045.18.161.199.29.199h14.77c.027 0 .055.004.08-.003.064-.018.141-.024.166-.102.018-.053.064-.066.098-.098.104-.097.202-.204.288-.319.027-.037.05-.07.085-.103.114-.11.213-.236.317-.356.019-.022.027-.06.05-.07.14-.068.202-.214.31-.315.088-.083.172-.186.244-.29.04-.06.08-.088.15-.052.053.027.128.009.154.086.024.074.077.126.143.166.028.017.05.042.054.079.01.102.11.116.167.172.056.053.055.165.145.195.053.017.07.046.086.092.01.027.026.054.046.073.209.192.343.45.567.627.025.02.028.05.04.077.029.064.074.115.145.119.098.005.194.023.293.023 1.67-.002 3.339-.001 5.009-.002.127 0 .254.002.382-.014.095-.012.16-.055.18-.136.023-.087-.045-.146-.118-.182" mask="url(#9l53pnekxc)"/>
                                </g>
                                <path fill="#FEFEFE" fill-rule="nonzero" d="M7.713 5.223c-.018-.106-.05-.203-.138-.274-.026-.021-.035-.05-.042-.084-.028-.133-.042-.274-.168-.362-.023-.017-.023-.045-.028-.07-.035-.148-.045-.306-.178-.413-.037-.03-.036-.081-.039-.128-.007-.147-.033-.286-.161-.383-.035-.026-.051-.062-.056-.109-.009-.085-.055-.152-.12-.207-.032-.026-.067-.038-.098-.009-.132.124-.245.26-.293.441-.024.09-.015.198-.087.265-.086.08-.123.178-.138.284-.013.092-.044.165-.11.231-.045.045-.065.11-.081.176-.023.097-.006.213-.08.287-.089.088-.11.195-.137.307-.014.058.003.132-.055.172-.099.068-.123.175-.153.277-.044.153.068.27.208.264.318-.013.636-.004.954-.004h.984c.062 0 .115-.01.16-.056.086-.084.077-.256-.034-.371-.066-.069-.096-.147-.11-.234M30.268 5.195c-.11-.067-.156-.2-.261-.273-.02-.015-.013-.043-.018-.065-.015-.075-.053-.134-.133-.152-.037-.008-.055-.023-.063-.062-.021-.113-.096-.193-.168-.279-.079-.092-.109-.228-.247-.265-.02-.108-.06-.198-.182-.225-.01-.002-.018-.026-.023-.041-.045-.14-.221-.19-.24-.347 0-.002-.006-.002-.008-.005-.062-.071-.142-.132-.174-.221-.048-.13-.155-.163-.267-.186-.089-.018-.18-.024-.273-.024-.42.003-.839.002-1.259.002h-1.357c-.197 0-.388.086-.372.365.02.376.005.754.005 1.13 0 .2.113.315.314.315h2.145c.045 0 .09.001.136.012.044.011.07.029.08.073.014.057.038.114.039.17.004.256.006.512 0 .767-.005.202-.066.254-.269.254l-2.183.001c-.179 0-.28.103-.281.28v1.208c0 .219.181.4.402.4.774 0 1.548-.004 2.322.002.264.002.461-.11.618-.307.04-.05.08-.096.123-.14.058-.058.12-.113.118-.206-.001-.027.02-.042.042-.048.079-.02.118-.075.137-.15.01-.043.046-.06.082-.08.12-.067.14-.234.282-.282.002 0 .003-.006.004-.009.01-.079.064-.106.126-.151.11-.08.192-.202.282-.308.033-.039.054-.094.099-.126.039-.027.07-.057.094-.097.06-.097.104-.208.217-.263.024-.011.028-.041.033-.068.01-.058.023-.112.1-.121.039-.005.07-.039.08-.079.031-.123.035-.315-.102-.399" transform="translate(0 26) translate(100) translate(3 3)"/>
                            </g>
                            <path d="M0 0H45V17H0z" transform="translate(0 26) translate(100)"/>
                        </g>
                    </g>
                </g>
            </g>
        </g>
    </g>
</svg>
