<?xml version="1.0" encoding="UTF-8"?>
<svg width="32px" height="32px" viewBox="0 0 32 32" version="1.1" xmlns="http://www.w3.org/2000/svg" xmlns:xlink="http://www.w3.org/1999/xlink">
    <title>Group 15</title>
    <defs>
        <polygon id="path-1" points="0 0 32 0 32 27.188534 0 27.188534"></polygon>
        <polygon id="path-3" points="0 0 22.3551877 0 22.3551877 15.6649947 0 15.6649947"></polygon>
    </defs>
    <g id="Home-/-Desktop" stroke="none" stroke-width="1" fill="none" fill-rule="evenodd">
        <g id="footer-ns" transform="translate(-410.000000, -933.000000)">
            <g id="Group-15" transform="translate(410.000000, 933.000000)">
                <g id="Group-3">
                    <mask id="mask-2" fill="white">
                        <use xlink:href="#path-1"></use>
                    </mask>
                    <g id="Clip-2"></g>
                    <path d="M4.85881427,27.1595639 C4.17707237,27.1803004 3.98987399,26.5591218 3.66553839,26.172448 C-0.586322307,21.103606 -1.19464118,13.769307 2.13093647,7.99664557 C5.5511752,2.06022719 12.1546966,-0.954791492 19.0570678,0.26896394 C25.4287909,1.39879546 30.6208911,6.68476023 31.7383167,13.1828924 C32.5802543,18.0785241 31.3833376,22.4374476 28.2625556,26.2739956 C27.9670431,26.6371884 27.7549658,27.170542 27.1423993,27.1562095 L27.1806279,27.188534 C27.0981028,26.8527865 27.0447042,26.5066707 26.9281983,26.1831211 C25.6238777,22.5530228 24.3341203,18.9174354 22.9803453,15.3059389 C22.6742138,14.4889838 22.7703919,14.0812686 23.6023172,13.7177708 C24.7091238,13.2341237 25.7485754,12.5961729 27.0823259,11.8825951 C25.422116,11.597164 24.1520797,11.9396203 22.8790094,12.0725776 C22.0822785,12.1561333 21.7251756,11.8899139 21.4830617,11.1504155 C20.8280191,9.15117786 20.1047112,7.17481131 19.4084061,5.18929633 C18.1553602,1.61805291 18.1553602,1.65159716 14.4062349,1.67934741 C13.5354742,1.68575132 13.1968788,1.98673477 12.955675,2.78112373 C12.0973538,5.60951437 11.0842981,8.39277274 10.2924216,11.2382405 C9.8324658,12.8910574 9.19593063,14.0739498 7.24475922,13.8906762 C7.2050137,13.8870168 7.15282874,14.01479 7.08092272,14.1178623 C7.73960615,14.1709232 8.37098349,14.2215446 9.21474149,14.2895479 C7.69925382,17.302432 8.01357719,20.963635 5.08970238,23.1891439 C4.92981009,23.2565373 4.7702212,23.3236258 4.61063231,23.3910193 C4.80753951,23.7106046 5.04631605,23.6053976 5.2893402,23.4581078 C5.86610537,23.1784707 6.27539324,23.0912556 5.95166444,23.9801784 C5.56391804,25.0447511 5.19983692,26.1178623 4.82574357,27.1873142 L4.85881427,27.1595639 Z" id="Fill-1" fill="#FFFFFF" mask="url(#mask-2)"></path>
                </g>
                <g id="Group-6" transform="translate(4.825501, 16.335005)">
                    <mask id="mask-4" fill="white">
                        <use xlink:href="#path-3"></use>
                    </mask>
                    <g id="Clip-5"></g>
                    <path d="M22.3169592,10.8210517 C22.467446,11.2116898 22.1173213,11.3382432 21.9231448,11.5227366 C16.1114998,17.044121 6.2652293,17.0459507 0.437504148,11.5273108 C0.241203743,11.3409877 -0.103156318,11.2135195 0.0333741028,10.8244062 C0.0333741028,10.8244062 0,10.8524614 0,10.8524614 C0.905044989,10.8512416 1.817675,10.7750046 2.71240436,10.8692335 C3.70846963,10.9741355 4.11624048,10.5600164 4.39294214,9.64517311 C4.87201221,8.06218919 5.5161324,6.5304365 6.04313982,4.96087029 C6.24854225,4.3488401 6.57894587,3.93319628 7.15389064,3.63343262 C9.28892302,2.52006828 11.4248656,1.40609405 13.5192423,0.218627402 C14.270463,-0.207384643 14.52623,0.00455406236 14.7725915,0.720571444 C15.507732,2.85551084 16.2838316,4.97642263 17.0508291,7.10007895 C18.4000531,10.8359942 18.4024803,10.8353843 22.3551877,10.8536811 L22.3169592,10.8210517 Z" id="Fill-4" fill="#FFFFFF" mask="url(#mask-4)"></path>
                </g>
                <path d="M5.2891885,23.4582298 C5.04616435,23.6052146 4.80738781,23.7104216 4.61078401,23.3908363 C4.7703729,23.3237478 4.92996179,23.2563543 5.08955068,23.1889609 C5.15599549,23.2789205 5.22274369,23.3685751 5.2891885,23.4582298" id="Fill-7" fill="#F9FAFB"></path>
                <path d="M15.907311,6.55265686 C16.6894786,8.57293588 17.3542301,10.2876572 18.0174645,12.0026835 C18.2001119,12.4750476 17.9704374,12.6186781 17.5326298,12.654052 C16.340871,12.7504155 15.1509325,12.8693451 13.7349603,13.0001677 C14.4515933,10.873157 15.114221,8.90624381 15.907311,6.55265686" id="Fill-9" fill="#FFFFFF"></path>
                <path d="M12.7027297,16.6272471 C12.8923552,14.2797591 13.1111073,14.1031943 15.3316988,14.5996493 C14.4251368,15.296455 13.7045595,16.1393306 12.6790644,16.5921781 L12.7027297,16.6272471 Z" id="Fill-11" fill="#FFFFFF"></path>
                <path d="M12.6790037,16.5922696 C12.636831,16.6560037 12.5949616,16.7200427 12.5530923,16.7837768 C12.5385291,16.7267515 12.5239658,16.6697263 12.5094026,16.6127011 C12.5737236,16.6172753 12.638348,16.6221545 12.702669,16.6270336 C12.702669,16.6273386 12.6790037,16.5922696 12.6790037,16.5922696" id="Fill-13" fill="#FFFFFF"></path>
            </g>
        </g>
    </g>
</svg>