<svg id="Modo_de_aislamiento" data-name="Modo de aislamiento" xmlns="http://www.w3.org/2000/svg" viewBox="0 0 512 512"><defs><style>.cls-1{fill:#fff;}</style></defs><path class="cls-1" d="M504.17,393.59H474.51a6,6,0,0,1-1.87-.3L362.82,356.24a5.86,5.86,0,0,1-4-5.56V255a5.86,5.86,0,0,1,5.87-5.86H426c19.58,0,39.08,22.86,59.63,69.89a605.22,605.22,0,0,1,24.22,67.11,5.86,5.86,0,0,1-5.64,7.47Zm-28.69-11.73h20.85c-15.09-49.71-45.45-121-70.37-121h-55.4v85.62Z"/><path class="cls-1" d="M364.69,356.55H6.87A5.87,5.87,0,0,1,1,350.68V282.36a33.28,33.28,0,0,1,33.24-33.24H364.69a5.86,5.86,0,0,1,5.87,5.86v95.7A5.87,5.87,0,0,1,364.69,356.55Zm-352-11.73H358.82v-84H34.24a21.54,21.54,0,0,0-21.51,21.51Z"/><rect class="cls-1" x="244.11" y="254.98" width="11.73" height="95.7"/><rect class="cls-1" x="115.71" y="254.98" width="11.73" height="95.7"/><path class="cls-1" d="M98.21,511.84a44.6,44.6,0,1,1,44.59-44.59A44.65,44.65,0,0,1,98.21,511.84Zm0-77.46a32.87,32.87,0,1,0,32.86,32.87A32.9,32.9,0,0,0,98.21,434.38Z"/><path class="cls-1" d="M98.21,486.75a19.52,19.52,0,1,1,19.52-19.51A19.54,19.54,0,0,1,98.21,486.75Zm0-27.29a7.78,7.78,0,1,0,7.78,7.78A7.8,7.8,0,0,0,98.21,459.46Z"/><path class="cls-1" d="M401.85,511.84a44.6,44.6,0,1,1,44.59-44.59A44.65,44.65,0,0,1,401.85,511.84Zm0-77.46a32.87,32.87,0,1,0,32.85,32.87A32.9,32.9,0,0,0,401.85,434.38Z"/><path class="cls-1" d="M401.85,486.75a19.52,19.52,0,1,1,19.51-19.51A19.54,19.54,0,0,1,401.85,486.75Zm0-27.29a7.78,7.78,0,1,0,7.78,7.78A7.8,7.8,0,0,0,401.85,459.46Z"/><rect class="cls-1" x="364.69" y="249.12" width="67.79" height="11.73"/><path class="cls-1" d="M504.17,381.86H475.48L366.57,345.13a5.75,5.75,0,0,0-1.88-.31H6.87A5.86,5.86,0,0,0,1,350.68v89.18a33.28,33.28,0,0,0,33.24,33.25H59.48a5.87,5.87,0,0,0,5.87-5.87,32.86,32.86,0,0,1,65.72,0,5.87,5.87,0,0,0,5.87,5.87H363.11a5.87,5.87,0,0,0,5.87-5.87,32.86,32.86,0,1,1,65.72,0,5.87,5.87,0,0,0,5.87,5.87H476.8A33.28,33.28,0,0,0,510,439.86V387.73A5.87,5.87,0,0,0,504.17,381.86Zm-229.42,60H225.21V430.09h49.54Zm229.42-20.53h-28V409.56h28Z"/></svg>