<svg id="Modo_de_aislamiento" data-name="Modo de aislamiento" xmlns="http://www.w3.org/2000/svg" viewBox="0 0 512 512"><defs><style>.cls-1{fill:#fff;}</style></defs><path class="cls-1" d="M282.93,94.85H199.67c-.73,0-1.45.06-2.17.1L274,18.42a35.39,35.39,0,0,0-47.77,2.09L167.38,79.38c-1.61,1.61-6.92,1.61-8.53,0L100,20.51A35.4,35.4,0,0,0,52.2,18.42l76.43,76.43H46.11a35.4,35.4,0,0,0-35.26,32.3H318.18A35.38,35.38,0,0,0,282.93,94.85Z"/><path class="cls-1" d="M293.49,237.39a11.71,11.71,0,1,0,11.71,11.7A11.72,11.72,0,0,0,293.49,237.39Z"/><rect class="cls-1" x="403.81" y="319.54" width="27.52" height="62.11"/><rect class="cls-1" x="364.95" y="319.54" width="27.52" height="62.11"/><rect class="cls-1" x="155.64" y="319.54" width="27.52" height="62.11"/><rect class="cls-1" x="194.5" y="319.54" width="27.52" height="62.11"/><path class="cls-1" d="M260.3,444.53h66.38v-125H260.3Zm44.45-62.89H317V393H304.75Z"/><path class="cls-1" d="M189.7,499.74H397.27v-16.5h-25.2a5.56,5.56,0,0,1-2.27.48H217.18a5.56,5.56,0,0,1-2.27-.48H189.7Z"/><polygon class="cls-1" points="222.85 471.9 364.13 471.9 364.13 455.88 332.35 455.88 254.63 455.88 222.85 455.88 222.85 471.9"/><path class="cls-1" d="M473.79,275.12a5.48,5.48,0,0,0-1.42-1.46L406.54,228.6l-.37-.26h0L296.69,153.4a5.72,5.72,0,0,0-6.41,0L180.8,228.34h0l-.37.26-17.81,12.19c-3-30.47,7.81-75.84,14-108H318.18a5.67,5.67,0,0,0,5.65-6.17,40.81,40.81,0,0,0-40.9-37.48H211.3L278,22.43a5.66,5.66,0,0,0-.36-8.35,41.05,41.05,0,0,0-55.43,2.42L163.89,74.86a6.61,6.61,0,0,1-1.54,0L104,16.5a41.07,41.07,0,0,0-55.44-2.42,5.66,5.66,0,0,0-.36,8.35l66.74,66.75H46.11A40.82,40.82,0,0,0,5.2,126.66a5.67,5.67,0,0,0,5.65,6.17H149.46c-11,38.11-20.9,90.83-14.89,127.16l-20,13.67a5.44,5.44,0,0,0-1.41,1.46L84.05,295.28l6.45,9.32,21.63-15V505.41a5.67,5.67,0,0,0,5.67,5.67H184a5.67,5.67,0,0,1-5.67-5.67V477.57A5.67,5.67,0,0,1,184,471.9h27.48V450.2a5.67,5.67,0,0,1,5.67-5.67H249V313.87a5.68,5.68,0,0,1,5.67-5.68h77.73a5.68,5.68,0,0,1,5.67,5.68V444.53H369.8a5.67,5.67,0,0,1,5.67,5.67v21.7h27.47a5.67,5.67,0,0,1,5.67,5.67v27.84a5.67,5.67,0,0,1-5.67,5.67h66.23a5.67,5.67,0,0,0,5.67-5.67V289.64l21.63,15,6.45-9.32ZM161.3,132.83h3.83c-6.67,34.45-17.28,83.16-13.42,115.42l-6,4.1C142.8,226.18,147.24,180.23,161.3,132.83Zm72.07,254.48A5.67,5.67,0,0,1,227.7,393H150a5.67,5.67,0,0,1-5.67-5.68V313.87a5.68,5.68,0,0,1,5.67-5.68H227.7a5.68,5.68,0,0,1,5.67,5.68Zm60.12-115.17a23,23,0,1,1,23.05-23A23.08,23.08,0,0,1,293.49,272.14ZM442.68,387.31A5.67,5.67,0,0,1,437,393H359.28a5.67,5.67,0,0,1-5.67-5.68V313.87a5.68,5.68,0,0,1,5.67-5.68H437a5.68,5.68,0,0,1,5.67,5.68Z"/></svg>