<svg id="Modo_de_aislamiento" data-name="Modo de aislamiento" xmlns="http://www.w3.org/2000/svg" viewBox="0 0 512 512"><defs><style>.cls-1{fill:#fff;}</style></defs><path class="cls-1" d="M312.78,292.09H276.89a6,6,0,0,1-5.12-2.89c-13.16-21.77-32.37-45.27-40.42-45.27s-27.24,23.5-40.41,45.27a6,6,0,0,1-5.11,2.89h-35.9a87.84,87.84,0,0,1,0-175.67H312.78a87.84,87.84,0,0,1,0,175.67Zm-32.55-11.95h32.55a75.89,75.89,0,1,0,0-151.78H149.93a75.89,75.89,0,0,0,0,151.78h32.56c8.93-14.35,31.79-48.15,48.86-48.15S271.29,265.79,280.23,280.14Z"/><path class="cls-1" d="M312.78,264.07H292.25a6,6,0,0,1-4.95-2.64c-30.64-45.52-49.69-45.52-56-45.52-14.56,0-28.86,10.06-46.34,32.62-3.06,3.95-6.23,8.3-9.42,13a6,6,0,0,1-4.92,2.59H149.93a59.82,59.82,0,0,1,0-119.64H312.78a59.82,59.82,0,1,1,0,119.64Z"/><path class="cls-1" d="M79.41,233.42H51.87A16.49,16.49,0,0,1,35.39,217V171.42a16.49,16.49,0,0,1,16.48-16.48H91.26l-5.71,9.14a75.88,75.88,0,0,0-8.4,61.68Z"/><path class="cls-1" d="M410.52,233.42H383l2.27-7.66a75.88,75.88,0,0,0-8.4-61.68l-5.71-9.14h39.39A16.49,16.49,0,0,1,427,171.42V217A16.49,16.49,0,0,1,410.52,233.42Z"/><path class="cls-1" d="M231.35,377.57a50.37,50.37,0,0,1-50.3-50.31,6,6,0,0,1,6-6h88.67a6,6,0,0,1,6,6A50.37,50.37,0,0,1,231.35,377.57Z"/><path class="cls-1" d="M335.08,511a127.34,127.34,0,0,1-127.21-127.2V368a6,6,0,0,1,8.33-5.48,38.55,38.55,0,0,0,29.91.17,6,6,0,0,1,8.27,5.51v15.58a80.7,80.7,0,1,0,161.39,0V73.36a6,6,0,0,1,6-6H456.3a6,6,0,0,1,6,6V383.77A127.34,127.34,0,0,1,335.08,511Z"/></svg>