<svg id="Modo_de_aislamiento" data-name="Modo de aislamiento" xmlns="http://www.w3.org/2000/svg" viewBox="0 0 512 512"><defs><style>.cls-1{fill:#fff;}</style></defs><path class="cls-1" d="M477.18,508.61H35.68a32.91,32.91,0,0,1-23.11-56.17,32.16,32.16,0,0,1,23.11-9.67h441.5a32.92,32.92,0,0,1,0,65.84Z"/><path class="cls-1" d="M99.54,458.79a8,8,0,0,1-8-8V421.15a8,8,0,1,1,16,0v29.63A8,8,0,0,1,99.54,458.79Z"/><path class="cls-1" d="M413.32,458.79a8,8,0,0,1-8-8V421.15a8,8,0,0,1,16,0v29.63A8,8,0,0,1,413.32,458.79Z"/><path class="cls-1" d="M256.43,194.7a8,8,0,0,1-8-8v-27.4a8,8,0,1,1,16,0v27.4A8,8,0,0,1,256.43,194.7Z"/><path class="cls-1" d="M282,167.3H230.49a8,8,0,0,1,0-16H282a8,8,0,1,1,0,16Z"/><path class="cls-1" d="M442.78,174a8,8,0,0,1-5.67-13.68l59-59a8,8,0,0,1,11.34,11.32l-59,59.05A8,8,0,0,1,442.78,174Z"/><path class="cls-1" d="M69.07,173.94a8,8,0,0,1-5.67-2.35l-59-59.07a8,8,0,1,1,11.33-11.31l59,59.06a8,8,0,0,1-5.67,13.67Z"/><path class="cls-1" d="M256.42,108a8,8,0,0,1-8-8V14a8,8,0,1,1,16,0v86A8,8,0,0,1,256.42,108Z"/><path class="cls-1" d="M485.14,420.33c-.21-61-24.52-122.15-66.77-167.9-43.9-47.56-101.42-73.75-161.94-73.75s-118,26.19-161.95,73.75c-42.43,46-66.77,107.46-66.77,168.72a8,8,0,0,0,8,8H477.17a8,8,0,0,0,8-8A7.5,7.5,0,0,0,485.14,420.33ZM152.44,272.42A224.6,224.6,0,0,0,116.21,310a8,8,0,1,1-12.76-9.68,240.62,240.62,0,0,1,38.81-40.29,8,8,0,1,1,10.18,12.37Zm71.68-42.5c-9.55,4.11-18.73,8.5-27.26,13.07a8,8,0,0,1-7.56-14.13c8.94-4.78,18.53-9.38,28.5-13.66a8,8,0,1,1,6.32,14.72Z"/></svg>