<svg id="Modo_de_aislamiento" data-name="Modo de aislamiento" xmlns="http://www.w3.org/2000/svg" viewBox="0 0 512 512"><defs><style>.cls-1{fill:#fff;}</style></defs><path class="cls-1" d="M25.39,229.31V427.82a47,47,0,0,0,37.83,46.06v10.33a27.57,27.57,0,1,0,55.14,0v-9.43H205.5v9.43a27.56,27.56,0,0,0,49.88,16.17,41.38,41.38,0,0,0,28.54,11.4H451.3a41.59,41.59,0,0,0,41.54-41.54V353.37a41.59,41.59,0,0,0-41.54-41.54H419.8V294a25.13,25.13,0,0,0-25.1-25.11H340.53A25.13,25.13,0,0,0,315.42,294v17.8H298.47V229.31a47,47,0,0,0-47-47h-2.15V83.26a39,39,0,0,0-38.94-38.93H112.77A39,39,0,0,0,73.83,83.26v99.09H72.35A47,47,0,0,0,25.39,229.31Zm376.15,82.52H333.68V294a6.85,6.85,0,0,1,6.85-6.85H394.7a6.85,6.85,0,0,1,6.84,6.85Zm-151.68,44a37.8,37.8,0,0,1,37.8-37.8H448.73a37.8,37.8,0,0,1,37.8,37.8V468a37.8,37.8,0,0,1-37.8,37.8H287.66a37.8,37.8,0,0,1-37.8-37.8ZM231.1,89.52h-139V83.26a20.7,20.7,0,0,1,20.68-20.67h97.65A20.69,20.69,0,0,1,231.1,83.26Zm0,92.83h-139V107.78h139Zm9.13,81.09H85.42V242.2H240.23ZM223.76,484.21v-9.43h18.62v9.43a9.31,9.31,0,0,1-18.62,0ZM117.31,313.66a31.17,31.17,0,0,1,44.09,0,31.18,31.18,0,0,1,44.1,44.09l-39.17,39.16a7,7,0,0,1-9.86,0l-39.16-39.16A31.17,31.17,0,0,1,117.31,313.66ZM81.48,474.78H100.1v9.43a9.31,9.31,0,1,1-18.62,0ZM256.25,358.9A35.75,35.75,0,0,1,292,323.15H444.38a35.75,35.75,0,0,1,35.76,35.75V465a35.76,35.76,0,0,1-35.76,35.76H292A35.76,35.76,0,0,1,256.25,465Z"/><rect class="cls-1" x="373.2" y="85.52" width="24.41" height="17.63" rx="6.65" transform="translate(32.1 274.92) rotate(-40.83)"/><rect class="cls-1" x="433.56" y="155.38" width="24.41" height="17.63" rx="6.65" transform="translate(1.11 331.38) rotate(-40.83)"/><path class="cls-1" d="M466.18,219.86a10.22,10.22,0,0,0,2.7-11.68l-29.52-70a3.89,3.89,0,0,1,1.05-4.43l37.16-32.37c8.08-7,20-28.84,13.31-37.16-7.26-7.84-30.57.8-38.71,7.77l-37.41,32.07a3.9,3.9,0,0,1-4.54.39l-65-39.37a10.21,10.21,0,0,0-11.94,1l-8.49,7.27a3.89,3.89,0,0,0-.14,5.77c58.13,55.11,56.9,53.45,55.72,54.44-30.68,26.3-30.18,38.69-36.44,36.81L322.51,164c-2.59-.78-3.58.73-9.52,5.84L309.3,173a3.86,3.86,0,0,0,.34,6.13c15.79,10.88,22.26,14.69,26.12,19.12s6.66,11.43,15.13,28.63a3.86,3.86,0,0,0,6,1.22l3.66-3.19c5.92-5.14,7.56-5.89,7.17-8.57l-3.2-22.12c-1-6.47,11.24-4.18,41.71-30.71,1.15-1-.31-2.49,45.77,63a3.9,3.9,0,0,0,5.74.69Z"/></svg>