<svg id="Modo_de_aislamiento" data-name="Modo de aislamiento" xmlns="http://www.w3.org/2000/svg" viewBox="0 0 512 512"><defs><style>.cls-1{fill:#fff;}</style></defs><path class="cls-1" d="M492.29,399a35.67,35.67,0,0,1-35.63-35.63,35.28,35.28,0,0,1,7.54-21.89,6.14,6.14,0,0,1,7.07-1.94c24.2,9.42,38.48,32.85,39.63,50.1a6.16,6.16,0,0,1-3.51,6A35.26,35.26,0,0,1,492.29,399Zm-20.93-46a23.08,23.08,0,0,0-2.42,10.34,23.37,23.37,0,0,0,23.35,23.34A22.78,22.78,0,0,0,498,386C495.37,374.26,485.67,360.41,471.36,353.06Z"/><path class="cls-1" d="M102.16,511.58A55.86,55.86,0,1,1,158,455.73,55.91,55.91,0,0,1,102.16,511.58Zm0-99.42a43.57,43.57,0,1,0,43.57,43.57A43.62,43.62,0,0,0,102.16,412.16Z"/><path class="cls-1" d="M102.16,482.32a28,28,0,1,1,28-28A28,28,0,0,1,102.16,482.32Zm0-43.63a15.67,15.67,0,1,0,15.67,15.67A15.7,15.7,0,0,0,102.16,438.69Z"/><path class="cls-1" d="M388.45,511.58a55.86,55.86,0,1,1,55.84-55.85A55.92,55.92,0,0,1,388.45,511.58Zm0-99.42A43.57,43.57,0,1,0,432,455.73,43.62,43.62,0,0,0,388.45,412.16Z"/><path class="cls-1" d="M388.45,482.32a28,28,0,1,1,27.95-28A28,28,0,0,1,388.45,482.32Zm0-43.63a15.67,15.67,0,1,0,15.66,15.67A15.69,15.69,0,0,0,388.45,438.69Z"/><path class="cls-1" d="M510.94,390.17l0-.5a6.16,6.16,0,0,0-8.75-5.15,23.12,23.12,0,0,1-9.87,2.22,23.37,23.37,0,0,1-23.35-23.34,23,23,0,0,1,4.95-14.33,6.11,6.11,0,0,0,1.08-5.41,6.19,6.19,0,0,0-3.7-4.1,60.34,60.34,0,0,0-11.63-3.24,6,6,0,0,0-1-.08H393.42c-11.11-14.49-67.24-84.73-115.22-91a5.37,5.37,0,0,0-.8,0H155.62c-16.75,0-29.57,5.59-39.22,17.11-13.29,15.89-44.52,50.32-59.93,61.76-8.41,6.22-30.78,9.28-39,10A15.56,15.56,0,0,0,2.21,349.63v99.42a15.58,15.58,0,0,0,15.55,15.56H53.29a49.71,49.71,0,1,1,97.74,0H339.57a49.69,49.69,0,1,1,98.58-8.88,49.13,49.13,0,0,1-.84,8.88h58.17A15.58,15.58,0,0,0,511,449.05v-57C511,391.43,511,390.8,510.94,390.17ZM33.45,391.55H8.35V363.31h25.1Zm235.33-11.32h-25.1V368h25.1Zm82.54-38.38c-2.38,6.18-9.63,9.86-19.39,9.86H114c-10.34,0-16.91-3.1-19.49-9.24-3.14-7.44,1.52-16,6.93-21.58,16.66-17.11,32.45-35.37,36.66-40.42,2.83-3.38,6.75-7,17.57-7H275.27a5.8,5.8,0,0,1,1.11.1c18.48,3.39,40.44,23.31,63.68,44.39l1.4,1.27C350.6,327.52,353.91,335.13,351.32,341.85Z"/><path class="cls-1" d="M333.21,328.34l-1.4-1.27c-20.71-18.78-42.12-38.2-57.13-41.31H155.62c-6,0-7,1.2-8.14,2.59-6.4,7.66-22.18,25.59-37.29,41.11-3.62,3.71-4.8,7.34-4.41,8.24.14.34,2,1.73,8.17,1.73h218c5.19,0,7.67-1.5,7.94-2C340,336.9,339.22,333.79,333.21,328.34Z"/></svg>