<svg xmlns="http://www.w3.org/2000/svg" xmlns:xlink="http://www.w3.org/1999/xlink" width="216" height="161" viewBox="0 0 216 161">
    <defs>
        <path id="qcyzvxze3a" d="M0 0H216V161H0z"/>
        <path id="uoztwdqxnc" d="M0 0L10.816 0 10.816 107.213 0 107.213z"/>
        <path id="1m67roecre" d="M0 0L182 0 182 26.523 0 26.523z"/>
        <path id="ezb6tjajrg" d="M0 0L10.816 0 10.816 26.523 0 26.523z"/>
        <path id="n0cw5oqlxi" d="M0 0L12.988 0 12.988 12.964 0 12.964z"/>
        <path id="9l5ld4powk" d="M0 0L23.341 0 23.341 23.298 0 23.298z"/>
        <path id="cjawtv96km" d="M0 0L22.199 0 22.199 28.699 0 28.699z"/>
    </defs>
    <g fill="none" fill-rule="evenodd">
        <g>
            <g>
                <g transform="translate(-829 -135) translate(395 117) translate(434 18)">
                    <mask id="3r6k1egkjb" fill="#fff">
                        <use xlink:href="#qcyzvxze3a"/>
                    </mask>
                    <g mask="url(#3r6k1egkjb)">
                        <g>
                            <g>
                                <path fill="#FFF" d="M171.01 130H10.99C4.92 130 0 125.076 0 119.002V22.787h182v96.215c0 6.074-4.92 10.998-10.99 10.998" transform="translate(0 6)"/>
                                <g transform="translate(0 6) translate(171.184 22.787)">
                                    <mask id="hx2q9wuobd" fill="#fff">
                                        <use xlink:href="#uoztwdqxnc"/>
                                    </mask>
                                    <path fill="#E2E2E2" d="M0 0v107.213c5.974 0 10.816-4.927 10.816-11.004V0H0z" mask="url(#hx2q9wuobd)"/>
                                </g>
                                <path fill="#47A552" d="M34.757 57.529h-17.3c-3.05 0-5.523-2.425-5.523-5.417 0-2.991 2.472-5.417 5.522-5.417h17.301c3.05 0 5.522 2.425 5.522 5.417 0 2.991-2.473 5.417-5.522 5.417" transform="translate(0 6)"/>
                                <path fill="#56C467" d="M62.765 79.195H17.42c-3.03 0-5.486-2.424-5.486-5.416 0-2.992 2.456-5.417 5.486-5.417h45.345c3.029 0 5.485 2.425 5.485 5.417 0 2.991-2.456 5.416-5.485 5.416" transform="translate(0 6)"/>
                                <path fill="#FF4D29" d="M49.333 101.236H17.425c-3.032 0-5.49-2.425-5.49-5.417 0-2.991 2.458-5.417 5.49-5.417h31.908c3.032 0 5.49 2.425 5.49 5.417 0 2.991-2.458 5.417-5.49 5.417" transform="translate(0 6)"/>
                                <g transform="translate(0 6)">
                                    <mask id="3iu6w00dvf" fill="#fff">
                                        <use xlink:href="#1m67roecre"/>
                                    </mask>
                                    <path fill="#267533" d="M182 26.523H0V11.047C0 4.946 4.92 0 10.99 0h160.02C177.08 0 182 4.946 182 11.047v15.476z" mask="url(#3iu6w00dvf)"/>
                                </g>
                                <g transform="translate(0 6) translate(171.184)">
                                    <mask id="bx3w9qevwh" fill="#fff">
                                        <use xlink:href="#ezb6tjajrg"/>
                                    </mask>
                                    <path fill="#0F5E18" d="M0 0v26.523h10.816V11.051C10.816 4.948 5.973 0 0 0" mask="url(#bx3w9qevwh)"/>
                                </g>
                                <path fill="#FF4D29" d="M17.715 8.218c2.987 0 5.408 2.425 5.408 5.417s-2.421 5.417-5.408 5.417c-2.987 0-5.408-2.425-5.408-5.417s2.421-5.417 5.408-5.417" transform="translate(0 6)"/>
                                <path fill="#FFD039" d="M38.973 8.218c2.987 0 5.408 2.425 5.408 5.417s-2.42 5.417-5.408 5.417c-2.986 0-5.407-2.425-5.407-5.417s2.42-5.417 5.407-5.417" transform="translate(0 6)"/>
                                <path fill="#C3FB5A" d="M60.232 8.218c2.986 0 5.407 2.425 5.407 5.417s-2.42 5.417-5.407 5.417-5.408-2.425-5.408-5.417 2.42-5.417 5.408-5.417" transform="translate(0 6)"/>
                            </g>
                            <g>
                                <g transform="translate(0 6) translate(80 30) translate(0 74.716)">
                                    <mask id="tq6h522i4j" fill="#fff">
                                        <use xlink:href="#n0cw5oqlxi"/>
                                    </mask>
                                    <path fill="#FFD039" d="M11.937 2.925l-2.769.034c-.893.01-1.755-.306-2.43-.89L4.65.255c-.31-.269-.747-.33-1.118-.16-.371.172-.607.546-.602.954l.034 2.764c.01.891-.306 1.752-.892 2.425L.255 8.323c-.269.309-.33.746-.159 1.116.172.37.546.606.955.6l2.769-.033c.893-.01 1.756.305 2.43.89l2.089 1.814c.308.268.746.33 1.117.159.372-.172.607-.545.602-.954l-.034-2.763c-.01-.892.306-1.753.892-2.426l1.817-2.085c.269-.308.331-.745.16-1.116-.173-.37-.547-.605-.956-.6" mask="url(#tq6h522i4j)"/>
                                </g>
                                <g transform="translate(0 6) translate(80 30) translate(105.66)">
                                    <mask id="modgcx4bcl" fill="#fff">
                                        <use xlink:href="#9l5ld4powk"/>
                                    </mask>
                                    <path fill="#FFD039" d="M22.308 9.973l-4.202-1.828c-1.355-.59-2.442-1.652-3.06-2.992L13.126.998C12.844.384 12.226-.007 11.548 0c-.677.007-1.287.41-1.557 1.03L8.16 5.225C7.57 6.577 6.505 7.662 5.162 8.28L1 10.194c-.616.283-1.007.9-1 1.576.007.676.411 1.285 1.032 1.555l4.202 1.828c1.355.589 2.442 1.652 3.06 2.992l1.919 4.155c.283.614.902 1.005 1.579.998.677-.007 1.287-.411 1.557-1.03l1.831-4.195c.591-1.353 1.656-2.437 2.998-3.055l4.163-1.915c.615-.282 1.007-.9 1-1.576-.008-.675-.412-1.284-1.033-1.554" mask="url(#modgcx4bcl)"/>
                                </g>
                                <path fill="#FFD039" d="M116.953 81.63l-2.295-2.208c-.74-.712-1.19-1.668-1.268-2.691l-.24-3.173c-.036-.469-.344-.873-.787-1.033-.444-.16-.94-.044-1.266.295l-2.212 2.29c-.714.74-1.672 1.189-2.697 1.266l-3.178.24c-.47.036-.875.344-1.035.786-.16.442-.044.937.295 1.264l2.295 2.208c.74.712 1.19 1.668 1.268 2.69l.241 3.174c.036.469.344.873.787 1.032.443.16.939.044 1.266-.294l2.212-2.291c.714-.739 1.671-1.188 2.696-1.266l3.179-.24c.47-.036.875-.343 1.034-.785.16-.443.044-.937-.295-1.264" transform="translate(0 6) translate(80 30)"/>
                                <g>
                                    <path fill="#56C467" d="M81.626 48.496l-58.208 26.9c-.861.399-1.237 1.418-.838 2.278 4.889 10.54 17.456 15.144 28.015 10.265l1.396-.646 12.719 27.421c2.583 5.57 9.224 8.003 14.804 5.424 5.58-2.579 8.018-9.207 5.434-14.777L72.23 77.94l1.396-.645c10.559-4.88 15.172-17.424 10.283-27.964-.399-.86-1.42-1.234-2.282-.836" transform="translate(0 6) translate(80 30) translate(10.905 .832)"/>
                                    <path fill="#47A552" d="M81.626 48.496l-4.87 2.251c4.654 10.474.03 22.819-10.425 27.65l-1.395.645 12.719 27.42c2.497 5.385.301 11.759-4.889 14.507 2.207.418 4.559.18 6.748-.831 5.58-2.579 8.017-9.208 5.434-14.777L72.229 77.94l1.396-.645c10.559-4.88 15.172-17.424 10.283-27.964-.399-.86-1.42-1.234-2.282-.836" transform="translate(0 6) translate(80 30) translate(10.905 .832)"/>
                                    <path fill="#FFEEC5" d="M59.205.16L.997 27.06c-.861.398-1.236 1.418-.838 2.278l17.48 37.684c.399.86 1.42 1.234 2.282.836l58.209-26.9c.86-.398 1.236-1.418.837-2.278L61.487.995c-.399-.86-1.42-1.234-2.282-.836" transform="translate(0 6) translate(80 30) translate(10.905 .832)"/>
                                    <path fill="#56C467" d="M42.616 7.826l-32.61 15.07 12.281 26.476c1.643 3.543 5.812 5.258 9.408 3.724 3.738-1.595 5.398-5.958 3.702-9.614l-3.386-7.301c-.771-1.663-.159-3.685 1.466-4.535 1.738-.91 3.87-.173 4.684 1.583l1.592 3.432c1.732 3.734 6.247 5.454 9.958 3.662 3.605-1.74 5.164-6.067 3.475-9.708l-10.57-22.79z" transform="translate(0 6) translate(80 30) translate(10.905 .832)"/>
                                    <path fill="#47A552" d="M29.34 33.557c-1.625.85-2.238 2.873-1.467 4.535l3.387 7.301c1.33 2.866.596 6.166-1.582 8.226.679-.071 1.358-.242 2.017-.524 3.738-1.594 5.398-5.958 3.702-9.613l-3.386-7.301c-.43-.928-.43-1.968-.062-2.854-.832-.262-1.767-.21-2.609.23M35.925 10.918l10.57 22.789c1.138 2.453.8 5.215-.642 7.29 1.286.13 2.617-.074 3.858-.674 3.605-1.74 5.164-6.067 3.475-9.708l-10.57-22.79-6.69 3.093z" transform="translate(0 6) translate(80 30) translate(10.905 .832)"/>
                                    <path fill="#546F7A" d="M79.37 36.603L15.793 65.985c-.862.398-1.237 1.418-.838 2.278l4.941 10.652c.399.86 1.42 1.235 2.282.836L85.755 50.37c.861-.398 1.237-1.418.838-2.278l-4.941-10.653c-.4-.86-1.42-1.234-2.282-.836" transform="translate(0 6) translate(80 30) translate(10.905 .832)"/>
                                    <path fill="#323E42" d="M79.4 36.5l-5.2 2.402 6.386 13.766 5.199-2.403c.861-.397 1.236-1.417.837-2.277l-4.94-10.653c-.4-.86-1.421-1.234-2.283-.836" transform="translate(0 6) translate(80 30) translate(10.905 .832)"/>
                                    <path fill="#F9D88F" d="M59.205.16l-5.199 2.402 17.477 37.677 5.199-2.403c1.86-.92 1.635-.311.838-2.277L61.487.995c-.399-.86-1.42-1.234-2.282-.836" transform="translate(0 6) translate(80 30) translate(10.905 .832)"/>
                                </g>
                                <g>
                                    <g transform="translate(0 6) translate(80 30) translate(6.597 43.89)">
                                        <mask id="grxywvq5dn" fill="#fff">
                                            <use xlink:href="#cjawtv96km"/>
                                        </mask>
                                        <path fill="#56C467" d="M10.372.448c-.368-.335-.864-.494-1.358-.436-.495.058-.94.327-1.221.738C6.93 2.016-.62 13.276.041 18.895c.714 6.077 6.249 10.44 12.337 9.727 6.088-.713 10.46-6.237 9.745-12.314-.661-5.62-10.618-14.828-11.75-15.86" mask="url(#grxywvq5dn)"/>
                                    </g>
                                    <path fill="#47A552" d="M10.372.448c-.368-.335-.864-.494-1.358-.436-.495.058-.94.327-1.221.738-.25.366-1.06 1.57-2.069 3.232 3.356 3.397 8.52 9.201 8.989 13.194.562 4.78-2.024 9.216-6.116 11.24 1.207.278 2.481.359 3.78.206 6.089-.713 10.46-6.237 9.746-12.314-.661-5.62-10.618-14.828-11.75-15.86" transform="translate(0 6) translate(80 30) translate(6.597 43.89)"/>
                                </g>
                            </g>
                        </g>
                    </g>
                </g>
            </g>
        </g>
    </g>
</svg>
