<?xml version="1.0" encoding="UTF-8"?>
<svg width="48px" height="32px" viewBox="0 0 48 32" version="1.1" xmlns="http://www.w3.org/2000/svg" xmlns:xlink="http://www.w3.org/1999/xlink">
    <title>logo_st</title>
    <defs>
        <filter color-interpolation-filters="auto" id="filter-1">
            <feColorMatrix in="SourceGraphic" type="matrix" values="0 0 0 0 1.000000 0 0 0 0 1.000000 0 0 0 0 1.000000 0 0 0 1.000000 0"></feColorMatrix>
        </filter>
        <polygon id="path-2" points="0 0 1.89262867 0 1.89262867 2.6148455 0 2.6148455"></polygon>
        <polygon id="path-4" points="0 0 1.89262867 0 1.89262867 2.6148455 0 2.6148455"></polygon>
        <polygon id="path-6" points="0 0 15.3777244 0 15.3777244 4.40981109 0 4.40981109"></polygon>
        <polygon id="path-8" points="0 32 48 32 48 0 0 0"></polygon>
    </defs>
    <g id="Home-/-Desktop" stroke="none" stroke-width="1" fill="none" fill-rule="evenodd">
        <g id="logo_st" transform="translate(-332.000000, -933.000000)" filter="url(#filter-1)">
            <g transform="translate(332.000000, 933.000000)">
                <path d="M31.5030315,7.98609402 C31.5061414,7.97502735 31.5103329,7.96462735 31.5134428,7.95356068 L31.5323724,7.88596068 C31.5323724,7.88596068 31.5277752,7.88516068 31.5245301,7.88462735 C31.5227724,7.89542735 31.5160118,7.92929402 31.5030315,7.98609402" id="Fill-1" fill="#006C7B"></path>
                <path d="M0.712245088,31.1072246 C0.530324442,31.0095022 0.404783344,30.8818389 0.336216303,30.7242346 C0.324722406,30.6976097 0.318975458,30.6753734 0.318975458,30.6576234 C0.318975458,30.6243666 0.331559293,30.5949133 0.356726964,30.5693612 C0.38199372,30.5439065 0.416376326,30.5266442 0.459874781,30.5176717 C0.466711668,30.5155261 0.47830465,30.5143557 0.494257387,30.5143557 C0.530819869,30.5143557 0.565796987,30.5248887 0.598891483,30.5460521 C0.63218415,30.5672156 0.656757309,30.595401 0.672809131,30.6309009 C0.714028623,30.7175052 0.79537767,30.7908458 0.9166581,30.8507276 C1.03803762,30.910707 1.17200097,30.9407454 1.31864724,30.9407454 C1.49036209,30.9407454 1.63572026,30.9024172 1.75482081,30.8257606 C1.87382228,30.7491041 1.93327347,30.6442622 1.93327347,30.5110398 C1.93327347,30.3844493 1.88293813,30.2761939 1.78216836,30.1862736 C1.68139859,30.0963534 1.52801452,30.041348 1.32201614,30.0213548 C1.03803762,29.9947299 0.814699307,29.9142698 0.65229847,29.7799746 C0.489600377,29.6455819 0.408449501,29.4772496 0.408449501,29.2752704 C0.408449501,29.133173 0.450065334,29.0104836 0.533792429,28.9071046 C0.617222267,28.8038231 0.73166581,28.725021 0.877123058,28.6706982 C1.02248122,28.6162779 1.18577383,28.5890678 1.36660453,28.5890678 C1.56358615,28.5890678 1.72965314,28.6279812 1.86480551,28.705613 C1.99975972,28.7833423 2.11410418,28.8945235 2.20813614,29.038669 C2.23568186,29.0809959 2.24935564,29.1208846 2.24935564,29.1586277 C2.24935564,29.2074889 2.22646693,29.2475726 2.1807886,29.2785863 C2.15532367,29.2940932 2.12579624,29.3017979 2.09131455,29.3017979 C2.05693195,29.3017979 2.02492739,29.293508 1.99520179,29.2768308 C1.96527803,29.2602512 1.9424884,29.2375273 1.92653567,29.2085617 C1.86480551,29.1086937 1.78751897,29.0326223 1.69467602,28.9803476 C1.60193216,28.928268 1.48451606,28.9021307 1.3425268,28.9021307 C1.16853298,28.9021307 1.02783183,28.9348999 0.920225171,29.0004383 C0.812420345,29.0658791 0.758617017,29.1608708 0.758617017,29.2852182 C0.758617017,29.4006906 0.806871567,29.4972427 0.902984326,29.574972 C0.99919617,29.6527989 1.17091103,29.7038057 1.4181289,29.7281875 C1.69289249,29.75491 1.90602501,29.8353701 2.05693195,29.9696653 C2.20813614,30.1040581 2.28363916,30.2810702 2.28363916,30.501092 C2.28363916,30.6609394 2.23905076,30.7979653 2.14987398,30.9124625 C2.0605981,31.0267646 1.94209206,31.1122961 1.79435585,31.1689595 C1.64661964,31.2256229 1.48798405,31.2538083 1.31864724,31.2538083 C1.09639887,31.2538083 0.894363903,31.2049471 0.712245088,31.1072246" id="Fill-3" fill="#004F75"></path>
                <path d="M5.64996377,29.4417301 C5.68196833,29.4728414 5.69792107,29.5139004 5.69792107,29.5651023 L5.69792107,31.0506393 C5.69792107,31.0995005 5.68196833,31.1400719 5.64996377,31.1721584 C5.61776104,31.2044399 5.57545161,31.220532 5.52293639,31.220532 C5.4723038,31.220532 5.43068796,31.2044399 5.39739529,31.1721584 C5.3643008,31.1400719 5.34755538,31.0995005 5.34755538,31.0506393 L5.34755538,31.0140665 C5.27443041,31.085164 5.18723533,31.1400719 5.08646556,31.1788878 C4.9856958,31.2178012 4.87808914,31.2372091 4.7636456,31.2372091 C4.6057036,31.2372091 4.46361525,31.2037572 4.33767781,31.1372436 C4.21174037,31.0705348 4.11324956,30.9734951 4.04240356,30.8457342 C3.97135939,30.7181684 3.93588684,30.5643678 3.93588684,30.3844298 L3.93588684,29.5651023 C3.93588684,29.5162411 3.95253318,29.4756697 3.98562767,29.4434856 C4.01892034,29.4113016 4.06083343,29.395112 4.11116877,29.395112 C4.16140503,29.395112 4.20311995,29.4113016 4.2365117,29.4434856 C4.2696062,29.4756697 4.28625253,29.5162411 4.28625253,29.5651023 L4.28625253,30.3844298 C4.28625253,30.5643678 4.33599336,30.7004185 4.43567319,30.7924843 C4.53515485,30.8847452 4.66763192,30.9307781 4.83241081,30.9307781 C4.92852357,30.9307781 5.01621407,30.9118578 5.09518507,30.8741147 C5.17425516,30.8363716 5.23588623,30.7852673 5.2805737,30.7208992 C5.32545935,30.6564336 5.34755538,30.5842633 5.34755538,30.5043884 L5.34755538,29.5651023 C5.34755538,29.5139004 5.3643008,29.4728414 5.39739529,29.4417301 C5.43068796,29.4107164 5.4723038,29.395112 5.52293639,29.395112 C5.57545161,29.395112 5.61776104,29.4107164 5.64996377,29.4417301" id="Fill-5" fill="#004F75"></path>
                <g id="Group-9" transform="translate(7.494457, 29.385155)">
                    <mask id="mask-3" fill="white">
                        <use xlink:href="#path-2"></use>
                    </mask>
                    <g id="Clip-8"></g>
                    <path d="M1.25551007,1.46729938 C1.34815485,1.41278157 1.4213789,1.33856324 1.47518222,1.24415674 C1.52898555,1.14975024 1.55583767,1.04373798 1.55583767,0.926022437 C1.55583767,0.808306894 1.52898555,0.701611945 1.47518222,0.606230171 C1.4213789,0.510750869 1.34815485,0.435849844 1.25551007,0.381429568 C1.16266713,0.327009293 1.05912297,0.299701627 0.944580343,0.299701627 C0.829938629,0.299701627 0.726394471,0.327009293 0.633749698,0.381429568 C0.540807669,0.435849844 0.468277216,0.510750869 0.415464741,0.606230171 C0.362751352,0.701611945 0.336592827,0.808306894 0.336592827,0.926022437 C0.336592827,1.04373798 0.362751352,1.14975024 0.415464741,1.24415674 C0.468277216,1.33856324 0.540807669,1.41278157 0.633749698,1.46729938 C0.726394471,1.52171965 0.829938629,1.54892979 0.944580343,1.54892979 C1.05912297,1.54892979 1.16266713,1.52171965 1.25551007,1.46729938 M1.42712584,0.121519111 C1.57258309,0.202661888 1.68663029,0.313648042 1.76906928,0.454672628 C1.85140918,0.595599687 1.89262867,0.752813817 1.89262867,0.926022437 C1.89262867,1.09923106 1.85418357,1.25644519 1.77759062,1.39727472 C1.70060132,1.53839683 1.5954718,1.64879782 1.46150845,1.7288678 C1.32744601,1.80864519 1.17822352,1.84872894 1.01314738,1.84872894 C0.880373056,1.84872894 0.756714579,1.82210397 0.642370121,1.7687565 C0.527827492,1.71550655 0.43052571,1.64109316 0.350365687,1.54561386 L0.350365687,2.44491379 C0.350365687,2.49601814 0.33421478,2.53707717 0.302210222,2.5681884 C0.270205664,2.59929963 0.227896233,2.61490401 0.175182843,2.61490401 C0.124748416,2.61490401 0.0828353264,2.59929963 0.04974083,2.5681884 C0.0164481629,2.53707717 0,2.49601814 0,2.44491379 L0,0.926022437 C0,0.752813817 0.0417149192,0.595599687 0.125442013,0.454672628 C0.208871852,0.313648042 0.322225456,0.202661888 0.465205571,0.121519111 C0.608582027,0.0405713885 0.768208476,0 0.944580343,0 C1.12075404,0 1.28176768,0.0405713885 1.42712584,0.121519111" id="Fill-7" fill="#004F75" mask="url(#mask-3)"></path>
                </g>
                <path d="M11.5112864,29.8047953 C11.4070487,29.8937403 11.3413551,30.0125286 11.3138094,30.1612579 L12.4576503,30.1612579 C12.4371397,30.0125286 12.3798683,29.8937403 12.2858364,29.8047953 C12.1920026,29.7160454 12.0696322,29.6715729 11.918428,29.6715729 C11.7512711,29.6715729 11.6155242,29.7160454 11.5112864,29.8047953 M12.7289459,30.386156 C12.6992203,30.4139513 12.6614688,30.4278002 12.6157905,30.4278002 L11.3104405,30.4278002 C11.3356082,30.5831613 11.4084359,30.7087765 11.5286264,30.8040608 C11.6488169,30.8996376 11.7958595,30.947426 11.9699524,30.947426 C12.0386185,30.947426 12.1101581,30.9352351 12.1847693,30.9107557 C12.2589843,30.8863739 12.3203181,30.8563355 12.3682754,30.8208355 C12.400379,30.7964537 12.4381305,30.7841652 12.481728,30.7841652 C12.5252265,30.7841652 12.5596091,30.7952833 12.5848759,30.8175196 C12.6259963,30.8507764 12.6465069,30.8885195 12.6465069,30.9307489 C12.6465069,30.9706376 12.6281761,31.0039919 12.5916137,31.0306169 C12.5137326,31.0906938 12.4170253,31.139555 12.3015909,31.1772005 C12.1858593,31.2149436 12.075181,31.2338639 11.9699524,31.2338639 C11.7821857,31.2338639 11.6137407,31.1944629 11.4649145,31.1155632 C11.3160884,31.0368586 11.1999604,30.9274329 11.1163324,30.7874811 C11.0328034,30.6477244 10.9909894,30.4889498 10.9909894,30.3111574 C10.9909894,30.1334626 11.0304254,29.9742004 11.1093964,29.8331758 C11.1884665,29.6922487 11.2984512,29.5823354 11.4392514,29.5033382 C11.5800516,29.4246336 11.7397772,29.385135 11.918428,29.385135 C12.094899,29.385135 12.247094,29.4229756 12.3752113,29.4983643 C12.5035268,29.573948 12.6019185,29.6794726 12.6706838,29.8148406 C12.739449,29.9503061 12.7737325,30.1057648 12.7737325,30.281119 C12.7737325,30.3233484 12.7588697,30.3583607 12.7289459,30.386156" id="Fill-10" fill="#004F75"></path>
                <path d="M15.6038767,29.4318311 C15.6726419,29.4673311 15.7070245,29.511706 15.7070245,29.5650535 C15.7070245,29.5805604 15.7057364,29.5916785 15.7036556,29.5983103 C15.6829468,29.6694078 15.6371694,29.7049078 15.5661252,29.7049078 C15.5548295,29.7049078 15.5374895,29.7026646 15.5146999,29.6982759 C15.423046,29.6826715 15.3485338,29.6749669 15.2913616,29.6749669 C15.1264836,29.6749669 14.9937093,29.7116371 14.8928405,29.7848802 C14.7921698,29.8581233 14.7417354,29.957016 14.7417354,30.0812659 L14.7417354,31.054004 C14.7417354,31.1072539 14.727368,31.1484105 14.6988314,31.177181 C14.6701958,31.2061467 14.6272918,31.2205807 14.5700205,31.2205807 C14.5152263,31.2205807 14.4727187,31.2066343 14.4429931,31.1789365 C14.4130694,31.1512388 14.3984047,31.109497 14.3984047,31.054004 L14.3984047,29.5650535 C14.3984047,29.511706 14.4130694,29.470647 14.4429931,29.4417789 C14.4727187,29.4130083 14.5152263,29.3984767 14.5700205,29.3984767 C14.6845631,29.3984767 14.7417354,29.4539698 14.7417354,29.5650535 L14.7417354,29.6283488 C14.8105006,29.5506195 14.8953176,29.4895673 14.9959883,29.4451924 C15.0968571,29.4007199 15.2044638,29.3784836 15.3188083,29.3784836 C15.4401878,29.3784836 15.5354088,29.3963311 15.6038767,29.4318311" id="Fill-12" fill="#004F75"></path>
                <path d="M19.1093171,28.6639883 C19.1401327,28.6939292 19.155689,28.7322575 19.155689,28.7788756 C19.155689,28.8254937 19.1401327,28.8638219 19.1093171,28.8937628 C19.0784025,28.9237037 19.0388675,28.9387229 18.9909102,28.9387229 L18.2523282,28.9387229 L18.2523282,31.0473623 C18.2523282,31.0962236 18.2350873,31.1371851 18.2006057,31.1705394 C18.1664212,31.2037963 18.1240127,31.220571 18.0735783,31.220571 C18.0232429,31.220571 17.9809335,31.2037963 17.94665,31.1705394 C17.9121683,31.1371851 17.8951256,31.0962236 17.8951256,31.0473623 L17.8951256,28.9387229 L17.1531748,28.9387229 C17.1050193,28.9387229 17.0655833,28.9237037 17.0346687,28.8937628 C17.003655,28.8638219 16.9883959,28.8254937 16.9883959,28.7788756 C16.9883959,28.7322575 17.003655,28.6939292 17.0346687,28.6639883 C17.0655833,28.6340474 17.1050193,28.6190282 17.1531748,28.6190282 L18.9909102,28.6190282 C19.0388675,28.6190282 19.0784025,28.6340474 19.1093171,28.6639883" id="Fill-14" fill="#004F75"></path>
                <path d="M21.899956,29.4318311 C21.9686222,29.4673311 22.0031038,29.511706 22.0031038,29.5650535 C22.0031038,29.5805604 22.0018157,29.5916785 21.9996359,29.5983103 C21.978927,29.6694078 21.9332487,29.7049078 21.8621054,29.7049078 C21.8508097,29.7049078 21.8335689,29.7026646 21.8107792,29.6982759 C21.7191253,29.6826715 21.6446132,29.6749669 21.5874409,29.6749669 C21.422563,29.6749669 21.2897886,29.7116371 21.1889198,29.7848802 C21.0882491,29.8581233 21.0378147,29.957016 21.0378147,30.0812659 L21.0378147,31.054004 C21.0378147,31.1072539 21.0234473,31.1484105 20.9948116,31.177181 C20.9662751,31.2061467 20.9233711,31.2205807 20.8660998,31.2205807 C20.8113056,31.2205807 20.768798,31.2066343 20.7390724,31.1789365 C20.7091487,31.1512388 20.694484,31.109497 20.694484,31.054004 L20.694484,29.5650535 C20.694484,29.511706 20.7091487,29.470647 20.7390724,29.4417789 C20.768798,29.4130083 20.8113056,29.3984767 20.8660998,29.3984767 C20.9806424,29.3984767 21.0378147,29.4539698 21.0378147,29.5650535 L21.0378147,29.6283488 C21.1064808,29.5506195 21.1912978,29.4895673 21.2920676,29.4451924 C21.3928374,29.4007199 21.5005431,29.3784836 21.6148876,29.3784836 C21.7362671,29.3784836 21.8314881,29.3963311 21.899956,29.4318311" id="Fill-16" fill="#004F75"></path>
                <path d="M24.7046353,30.8524539 C24.7973792,30.7979361 24.8699096,30.7237177 24.922623,30.6293112 C24.9753364,30.5349047 25.0016931,30.4288925 25.0016931,30.3111769 C25.0016931,30.1934614 24.9753364,30.0867664 24.922623,29.9913847 C24.8699096,29.8959054 24.7973792,29.8210043 24.7046353,29.7665841 C24.6117924,29.7121638 24.5082482,29.6848561 24.3937056,29.6848561 C24.279163,29.6848561 24.1755197,29.7121638 24.082974,29.7665841 C23.9902302,29.8210043 23.916808,29.8959054 23.8630046,29.9913847 C23.8092013,30.0867664 23.7822501,30.1934614 23.7822501,30.3111769 C23.7822501,30.4288925 23.8092013,30.5349047 23.8630046,30.6293112 C23.916808,30.7237177 23.9902302,30.7979361 24.082974,30.8524539 C24.1755197,30.9068742 24.279163,30.9340843 24.3937056,30.9340843 C24.5082482,30.9340843 24.6117924,30.9068742 24.7046353,30.8524539 M24.8728822,29.5066736 C25.0159614,29.5878164 25.129315,29.6988025 25.2130421,29.8398271 C25.296571,29.9807542 25.338385,30.1379683 25.338385,30.3111769 L25.338385,31.0539454 C25.338385,31.1028067 25.3217387,31.143378 25.2886442,31.1755621 C25.2553515,31.2078436 25.2134384,31.2239357 25.1631031,31.2239357 C25.1126687,31.2239357 25.0710528,31.2078436 25.0376611,31.1755621 C25.0045666,31.143378 24.9879203,31.1028067 24.9879203,31.0539454 L24.9879203,30.9307684 C24.9077602,31.0262477 24.8105575,31.1006611 24.6959158,31.153911 C24.5814723,31.2072585 24.4578138,31.2338834 24.3250395,31.2338834 C24.1602606,31.2338834 24.0107408,31.1937997 23.8768766,31.1140223 C23.7428141,31.0339523 23.6374865,30.9235513 23.5608935,30.7824292 C23.4840033,30.6415997 23.4457564,30.4843856 23.4457564,30.3111769 C23.4457564,30.1379683 23.4869759,29.9807542 23.5694148,29.8398271 C23.6518538,29.6988025 23.7656038,29.5878164 23.9112592,29.5066736 C24.0564192,29.4257259 24.2174328,29.3851545 24.3937056,29.3851545 C24.5701766,29.3851545 24.7299021,29.4257259 24.8728822,29.5066736" id="Fill-18" fill="#004F75"></path>
                <path d="M28.3986648,29.4817359 C28.5246023,29.5483471 28.6230931,29.6455819 28.6941372,29.7731477 C28.7649832,29.9010061 28.8004558,30.0547092 28.8004558,30.2346472 L28.8004558,31.0539747 C28.8004558,31.1028359 28.7841067,31.1434073 28.750715,31.1755913 C28.7176205,31.2077754 28.6758065,31.2238674 28.625372,31.2238674 C28.5749376,31.2238674 28.5331236,31.2077754 28.5000291,31.1755913 C28.4667364,31.1434073 28.4502883,31.1028359 28.4502883,31.0539747 L28.4502883,30.2346472 C28.4502883,30.0547092 28.4003493,29.9186585 28.3008676,29.8264951 C28.2011878,29.7344293 28.069008,29.6882988 27.90413,29.6882988 C27.8078191,29.6882988 27.7203267,29.7072192 27.6412566,29.7448647 C27.5623847,29.7827053 27.5004564,29.8337122 27.4557689,29.8981778 C27.4110815,29.9625458 27.3889854,30.0347161 27.3889854,30.114591 L27.3889854,31.0539747 C27.3889854,31.1028359 27.3727354,31.1434073 27.3406318,31.1755913 C27.3086272,31.2077754 27.2663178,31.2238674 27.2136044,31.2238674 C27.1632691,31.2238674 27.121356,31.2077754 27.0882615,31.1755913 C27.0549688,31.1434073 27.0385207,31.1028359 27.0385207,31.0539747 L27.0385207,29.5684377 C27.0385207,29.5173334 27.0549688,29.4761768 27.0882615,29.4451631 C27.121356,29.4140519 27.1632691,29.3984475 27.2136044,29.3984475 C27.2663178,29.3984475 27.3086272,29.4140519 27.3406318,29.4451631 C27.3727354,29.4761768 27.3889854,29.5173334 27.3889854,29.5684377 L27.3889854,29.6050105 C27.4622095,29.533913 27.5491073,29.4790051 27.649778,29.4400917 C27.7506468,29.4013733 27.8582535,29.3818678 27.972697,29.3818678 C28.1307381,29.3818678 28.2727274,29.4150271 28.3986648,29.4817359" id="Fill-20" fill="#004F75"></path>
                <path d="M30.8030295,31.1638881 C30.6656973,31.1171724 30.5580906,31.0562178 30.4801105,30.9807316 C30.450484,30.9518635 30.4355221,30.9174364 30.4355221,30.8774501 C30.4355221,30.8242002 30.4583117,30.780898 30.5042873,30.7475437 C30.5476867,30.7164324 30.5877171,30.7009256 30.6244778,30.7009256 C30.6701561,30.7009256 30.7137537,30.7209187 30.7549732,30.7608074 C30.7984716,30.807523 30.8635707,30.8480944 30.9507657,30.8823265 C31.0378617,30.9168512 31.1306056,30.9341136 31.2289973,30.9341136 C31.3593936,30.9341136 31.460857,30.9129501 31.5329911,30.8707208 C31.6052243,30.8285889 31.6412913,30.7719255 31.6412913,30.7009256 C31.6412913,30.6320713 31.6056206,30.5749202 31.5347746,30.5292774 C31.4636314,30.4838297 31.3433418,30.4455989 31.1741041,30.4142926 C30.7344625,30.3323696 30.5145922,30.1568204 30.5145922,29.8881324 C30.5145922,29.7793894 30.5476867,29.6871285 30.614272,29.6116423 C30.680461,29.5361561 30.767557,29.4795903 30.8752627,29.4417496 C30.9827703,29.4040065 31.0972138,29.3851838 31.2186924,29.3851838 C31.3675186,29.3851838 31.5009865,29.4084928 31.618799,29.4551109 C31.7367105,29.501729 31.8299498,29.5661946 31.8988141,29.6482151 C31.9283415,29.6838126 31.9434025,29.7193126 31.9434025,29.75491 C31.9434025,29.7925556 31.9239817,29.8270803 31.8850412,29.858094 C31.8598735,29.8759415 31.827869,29.8848165 31.7887303,29.8848165 C31.7292791,29.8848165 31.6756739,29.8636531 31.6273203,29.8215212 C31.5701481,29.7705144 31.5095079,29.7344293 31.4453997,29.7132659 C31.3811924,29.6921999 31.3035095,29.6815695 31.2118556,29.6815695 C31.1064288,29.6815695 31.0199273,29.6988318 30.9524502,29.733259 C30.8849731,29.7677837 30.851185,29.8159622 30.851185,29.8780871 C30.851185,29.9225596 30.8625798,29.9597175 30.8853694,29.989756 C30.9082581,30.0196969 30.9518557,30.0474922 31.016063,30.0729468 C31.0801712,30.098499 31.1727169,30.1235635 31.2942945,30.1478478 C31.5438905,30.1969041 31.7206587,30.2644906 31.8248964,30.3510949 C31.9290351,30.4376992 31.981154,30.5499532 31.981154,30.6875643 C31.981154,30.7896755 31.9526174,30.8823265 31.895247,30.9657124 C31.8380748,31.0489033 31.7540504,31.1145392 31.6429758,31.1621326 C31.531703,31.2100185 31.3985323,31.2339127 31.2427702,31.2339127 C31.086909,31.2339127 30.94056,31.2106037 30.8030295,31.1638881" id="Fill-22" fill="#004F75"></path>
                <g id="Group-26" transform="translate(33.602566, 29.385155)">
                    <mask id="mask-5" fill="white">
                        <use xlink:href="#path-4"></use>
                    </mask>
                    <g id="Clip-25"></g>
                    <path d="M1.25541099,1.46729938 C1.34815485,1.41278157 1.4213789,1.33856324 1.47518222,1.24415674 C1.52898555,1.14975024 1.55583767,1.04373798 1.55583767,0.926022437 C1.55583767,0.808306894 1.52898555,0.701611945 1.47518222,0.606230171 C1.4213789,0.510750869 1.34815485,0.435849844 1.25541099,0.381429568 C1.16256804,0.327009293 1.05902389,0.299701627 0.944580343,0.299701627 C0.829938629,0.299701627 0.726394471,0.327009293 0.633749698,0.381429568 C0.540807669,0.435849844 0.468277216,0.510750869 0.415464741,0.606230171 C0.362751352,0.701611945 0.336592827,0.808306894 0.336592827,0.926022437 C0.336592827,1.04373798 0.362751352,1.14975024 0.415464741,1.24415674 C0.468277216,1.33856324 0.540807669,1.41278157 0.633749698,1.46729938 C0.726394471,1.52171965 0.829938629,1.54892979 0.944580343,1.54892979 C1.05902389,1.54892979 1.16256804,1.52171965 1.25541099,1.46729938 M1.42712584,0.121519111 C1.57248401,0.202661888 1.68663029,0.313648042 1.76897019,0.454672628 C1.85140918,0.595599687 1.89262867,0.752813817 1.89262867,0.926022437 C1.89262867,1.09923106 1.85418357,1.25644519 1.77759062,1.39727472 C1.70060132,1.53839683 1.59537272,1.64879782 1.46150845,1.7288678 C1.32744601,1.80864519 1.17822352,1.84872894 1.01314738,1.84872894 C0.880373056,1.84872894 0.756714579,1.82210397 0.642271036,1.7687565 C0.527827492,1.71550655 0.430426624,1.64109316 0.350365687,1.54561386 L0.350365687,2.44491379 C0.350365687,2.49601814 0.334115694,2.53707717 0.302111137,2.5681884 C0.270106579,2.59929963 0.227797148,2.61490401 0.175083758,2.61490401 C0.124748416,2.61490401 0.0828353264,2.59929963 0.04974083,2.5681884 C0.0164481629,2.53707717 0,2.49601814 0,2.44491379 L0,0.926022437 C0,0.752813817 0.0416158338,0.595599687 0.125342928,0.454672628 C0.208772766,0.313648042 0.322225456,0.202661888 0.465205571,0.121519111 C0.608582027,0.0405713885 0.768208476,0 0.944580343,0 C1.12075404,0 1.28176768,0.0405713885 1.42712584,0.121519111" id="Fill-24" fill="#004F75" mask="url(#mask-5)"></path>
                </g>
                <path d="M38.3613765,30.8541704 C38.4542195,30.8008229 38.5261554,30.7269947 38.577878,30.6326857 C38.6293032,30.5382792 38.6551645,30.4310966 38.6551645,30.3112355 C38.6551645,30.1912768 38.6293032,30.0836066 38.577878,29.9880297 C38.5261554,29.892648 38.4542195,29.818137 38.3613765,29.7648871 C38.2686327,29.7116371 38.1638995,29.6849146 38.0470779,29.6849146 C37.9302563,29.6849146 37.8256222,29.7116371 37.7326802,29.7648871 C37.6401345,29.818137 37.5672077,29.892648 37.5147916,29.9880297 C37.4620782,30.0836066 37.4357215,30.1912768 37.4357215,30.3112355 C37.4357215,30.4310966 37.4620782,30.5382792 37.5147916,30.6326857 C37.5672077,30.7269947 37.6401345,30.8008229 37.7326802,30.8541704 C37.8256222,30.9074203 37.9302563,30.9340453 38.0470779,30.9340453 C38.1638995,30.9340453 38.2686327,30.9074203 38.3613765,30.8541704 M37.555912,31.1156413 C37.4116438,31.0368391 37.2994792,30.9274134 37.2193192,30.7874616 C37.1391591,30.6477049 37.0990296,30.4889303 37.0990296,30.3112355 C37.0990296,30.1312974 37.1391591,29.9713526 37.2193192,29.8315958 C37.2994792,29.6915465 37.4116438,29.5823158 37.555912,29.5033187 C37.7000811,29.4246141 37.8638692,29.3851155 38.0470779,29.3851155 C38.2278095,29.3851155 38.3899131,29.4246141 38.5331905,29.5033187 C38.6762697,29.5823158 38.7884343,29.6915465 38.8696842,29.8315958 C38.9510333,29.9713526 38.9915592,30.1312974 38.9915592,30.3112355 C38.9915592,30.4889303 38.9517269,30.6477049 38.8713687,30.7874616 C38.7914068,30.9274134 38.6797377,31.0368391 38.5366585,31.1156413 C38.3933811,31.1944434 38.2302867,31.233942 38.0470779,31.233942 C37.8638692,31.233942 37.7000811,31.1944434 37.555912,31.1156413" id="Fill-27" fill="#004F75"></path>
                <path d="M41.8974839,29.4318311 C41.9662491,29.4673311 42.0006317,29.511706 42.0006317,29.5650535 C42.0006317,29.5805604 41.9993436,29.5916785 41.9972628,29.5983103 C41.9765539,29.6694078 41.9308756,29.7049078 41.8597323,29.7049078 C41.8484366,29.7049078 41.8310967,29.7026646 41.8083071,29.6982759 C41.7166531,29.6826715 41.642141,29.6749669 41.5849688,29.6749669 C41.4201899,29.6749669 41.2873165,29.7116371 41.1865467,29.7848802 C41.0857769,29.8581233 41.0353425,29.957016 41.0353425,30.0812659 L41.0353425,31.054004 C41.0353425,31.1072539 41.0210742,31.1484105 40.9924386,31.177181 C40.9638029,31.2061467 40.920998,31.2205807 40.8636276,31.2205807 C40.8088335,31.2205807 40.7663259,31.2066343 40.7366003,31.1789365 C40.7067756,31.1512388 40.6920119,31.109497 40.6920119,31.054004 L40.6920119,29.5650535 C40.6920119,29.511706 40.7067756,29.470647 40.7366003,29.4417789 C40.7663259,29.4130083 40.8088335,29.3984767 40.8636276,29.3984767 C40.9781703,29.3984767 41.0353425,29.4539698 41.0353425,29.5650535 L41.0353425,29.6283488 C41.1041077,29.5506195 41.1889247,29.4895673 41.2895954,29.4451924 C41.3904643,29.4007199 41.4980709,29.3784836 41.6125145,29.3784836 C41.7337949,29.3784836 41.8290159,29.3963311 41.8974839,29.4318311" id="Fill-29" fill="#004F75"></path>
                <path d="M44.4444819,30.9340745 C44.4731175,30.9651858 44.4874849,31.005172 44.4874849,31.0539357 C44.4874849,31.1027969 44.4684605,31.1427831 44.4306099,31.1738944 C44.3928584,31.2049081 44.3441084,31.22061 44.2848554,31.22061 L44.2229271,31.22061 C44.1105644,31.22061 44.0083083,31.1922295 43.9154654,31.1355661 C43.8228206,31.0790002 43.7498938,31.0018561 43.6974777,30.9040361 C43.6447643,30.8064112 43.6184076,30.6964979 43.6184076,30.5743936 L43.6184076,29.7515551 L43.4603665,29.7515551 C43.412211,29.7515551 43.3732705,29.7381939 43.343644,29.7116664 C43.3137202,29.6848464 43.2987583,29.6516871 43.2987583,29.6116033 C43.2987583,29.5672284 43.3137202,29.5317284 43.343644,29.5051034 C43.3732705,29.4784785 43.412211,29.4650197 43.4603665,29.4650197 L43.6184076,29.4650197 L43.6184076,28.9854776 C43.6184076,28.9366163 43.6344594,28.8966301 43.666464,28.8655189 C43.6985676,28.8345052 43.7397871,28.8189008 43.7901224,28.8189008 C43.8404578,28.8189008 43.8816773,28.8345052 43.9137809,28.8655189 C43.9457855,28.8966301 43.9617382,28.9366163 43.9617382,28.9854776 L43.9617382,29.4650197 L44.2538417,29.4650197 C44.3018981,29.4650197 44.3407395,29.4784785 44.3706633,29.5051034 C44.4003889,29.5317284 44.4152517,29.5672284 44.4152517,29.6116033 C44.4152517,29.6516871 44.4003889,29.6848464 44.3706633,29.7116664 C44.3407395,29.7381939 44.3018981,29.7515551 44.2538417,29.7515551 L43.9617382,29.7515551 L43.9617382,30.5743936 C43.9617382,30.663241 43.987005,30.7374594 44.0373403,30.7975362 C44.0876756,30.8575156 44.149604,30.8873589 44.2229271,30.8873589 L44.3396496,30.8873589 C44.3808691,30.8873589 44.415648,30.9030608 44.4444819,30.9340745" id="Fill-31" fill="#004F75"></path>
                <path d="M46.5189817,29.8047953 C46.4147439,29.8937403 46.3490503,30.0125286 46.3215046,30.1612579 L47.4653455,30.1612579 C47.4448349,30.0125286 47.3875636,29.8937403 47.2936307,29.8047953 C47.1996978,29.7160454 47.0773274,29.6715729 46.9261232,29.6715729 C46.7589663,29.6715729 46.6232194,29.7160454 46.5189817,29.8047953 M47.7366411,30.386156 C47.7069155,30.4139513 47.669164,30.4278002 47.6234857,30.4278002 L46.3181357,30.4278002 C46.3433034,30.5831613 46.4161311,30.7087765 46.5363216,30.8040608 C46.6565121,30.8996376 46.8036538,30.947426 46.9776476,30.947426 C47.0463137,30.947426 47.1179524,30.9352351 47.1924646,30.9107557 C47.2667786,30.8863739 47.3280133,30.8563355 47.3759706,30.8208355 C47.4080742,30.7964537 47.4458257,30.7841652 47.4894233,30.7841652 C47.5329217,30.7841652 47.5673043,30.7952833 47.5925711,30.8175196 C47.6337906,30.8507764 47.6542021,30.8885195 47.6542021,30.9307489 C47.6542021,30.9706376 47.6358714,31.0039919 47.5993089,31.0306169 C47.5214278,31.0906938 47.4247205,31.139555 47.3092862,31.1772005 C47.1935545,31.2149436 47.0828762,31.2338639 46.9776476,31.2338639 C46.7898809,31.2338639 46.6214359,31.1944629 46.4726097,31.1155632 C46.3237836,31.0368586 46.2076556,30.9274329 46.1240276,30.7874811 C46.0404986,30.6477244 45.9986846,30.4889498 45.9986846,30.3111574 C45.9986846,30.1334626 46.0381206,29.9742004 46.1170916,29.8331758 C46.1961617,29.6922487 46.3061464,29.5823354 46.4470457,29.5033382 C46.5877469,29.4246336 46.7474724,29.385135 46.9261232,29.385135 C47.1025942,29.385135 47.2547892,29.4229756 47.3829065,29.4983643 C47.511222,29.573948 47.6096138,29.6794726 47.678379,29.8148406 C47.7471442,29.9503061 47.7815268,30.1057648 47.7815268,30.281119 C47.7815268,30.3233484 47.7665649,30.3583607 47.7366411,30.386156" id="Fill-33" fill="#004F75"></path>
                <path d="M28.1445605,18.9696793 C28.1208791,18.7313224 28.0686612,18.4944284 28.0275408,18.245246 C27.5431126,18.2873778 27.0862302,18.327169 26.6601634,18.3642294 C26.693456,19.1920418 26.7261542,20.0020066 26.7594469,20.8276734 L28.2915041,20.8276734 L28.2915041,20.4716009 C28.2816946,20.448487 28.2650483,20.4257631 28.2630666,20.402259 C28.2234324,19.9247649 28.1920224,19.4468808 28.1445605,18.9696793" id="Fill-35" fill="#004F75"></path>
                <path d="M10.7726054,7.47368864 C10.7401054,7.55922015 10.8053035,7.57862809 10.909145,7.59101407 C11.341256,7.642411 11.7722772,7.69887935 12.2032983,7.75486006 C12.3287403,7.77114714 12.4529933,7.79231058 12.5845786,7.81230369 C12.6030085,7.74793562 12.6166823,7.69985462 12.6330313,7.64260605 C12.4231686,7.61880937 12.2312404,7.59550033 12.0386185,7.57550722 C11.700044,7.54049489 11.3610731,7.50753064 11.0223995,7.47368864 L10.7726054,7.47368864 Z" id="Fill-37" fill="#004F75"></path>
                <path d="M27.3818711,16.1116298 C27.0307127,15.2639219 26.5735331,14.460979 25.9488001,13.6964619 C25.6070549,13.8289041 25.2766053,13.95686 24.9631985,14.0782816 C25.1901039,14.4661479 25.4228553,14.8325583 25.6191433,15.2086239 C25.8148368,15.5832265 25.9739678,15.9674844 26.1524205,16.3546681 C26.5564904,16.2747931 26.9607585,16.1949182 27.3818711,16.1116298" id="Fill-39" fill="#004F75"></path>
                <path d="M21.4521399,10.1887923 C21.2887482,10.3423979 21.1362559,10.4854706 20.9941676,10.6189855 C21.432422,10.9070814 21.8644339,11.1725509 22.2655313,11.4600616 C22.6659351,11.7469872 23.0353252,12.0559539 23.4275048,12.3623849 C23.6666968,12.2191172 23.9098522,12.0734113 24.1601417,11.9235117 C23.3438768,11.2671525 22.4456684,10.6957396 21.4521399,10.1887923" id="Fill-41" fill="#004F75"></path>
                <path d="M15.4540003,8.30539235 C15.437453,8.34059973 15.4255628,8.37687992 15.4202122,8.3907288 C16.4840912,8.74182736 17.534891,9.08863471 18.6006527,9.44031843 C18.6770475,9.33820726 18.7683051,9.2164931 18.8670931,9.08463609 C17.7886485,8.70193866 16.6844417,8.39267935 15.537331,8.14252163 C15.505921,8.20337871 15.4782762,8.25399542 15.4540003,8.30539235" id="Fill-43" fill="#004F75"></path>
                <path d="M25.9806462,25.0841484 L27.7891514,25.0841484 C27.9183587,24.3864376 28.046476,23.6943833 28.1751878,22.9991107 C27.5777033,22.955711 27.0328332,22.9160173 26.5144188,22.8782743 C26.3339844,23.623676 26.1583061,24.3497673 25.9806462,25.0841484" id="Fill-45" fill="#004F75"></path>
                <path d="M12.2982617,0.0302724976 C13.4238709,0.10156501 14.5440304,0.221328628 15.6487326,0.448859996 C18.0049815,0.934058693 20.2134942,1.78040126 22.23751,3.07644257 C22.411702,3.18801389 22.4225023,3.26847397 22.3057798,3.43144222 C21.7726017,4.17645384 21.1521294,4.83739687 20.3927395,5.3608263 C18.204143,6.86947728 15.8128179,7.15533002 13.272964,6.46532384 C12.4389628,6.23876774 11.5961431,6.13090246 10.7339027,6.17927604 C10.3044669,6.2033653 9.88335429,6.27904655 9.49474167,6.47312603 C9.00020684,6.71996782 8.83067186,7.12022017 9.00288214,7.63282406 C9.08859094,7.88795567 9.26476464,8.07637856 9.48820203,8.22423007 C9.83569425,8.45410209 10.2295584,8.56840418 10.6324393,8.65061976 C12.137248,8.95753841 13.6392824,9.27703809 15.1290301,9.64803223 C16.4654929,9.98089317 17.7979923,10.3165824 19.0432966,10.9359788 C21.1658032,11.9916151 22.5334778,13.6075462 23.0233556,15.9169945 C23.1121361,16.2818444 23.1184776,18.0870761 23.0559547,18.3879481 C22.91456,19.1903058 22.6801241,19.9598943 22.2506883,20.6624815 C22.1661686,20.8008729 22.1032494,20.9559414 21.9543241,21.0491776 C21.3353382,21.437239 20.7145686,21.822082 20.0545613,22.1409965 C19.1198895,22.5927434 18.1159571,22.764294 17.0905231,22.8334409 C15.5569796,22.9371125 14.0354255,22.9349669 12.5766914,22.3391722 C11.874771,22.0525392 11.1753278,21.7621027 10.4886665,21.4417253 C9.11643392,20.801263 7.77026078,20.1053076 6.34462122,19.5789524 C5.11883674,19.1264253 3.87065898,18.9162539 2.56877698,19.1936217 C2.4012237,19.2293167 2.1130836,19.2945625 1.89162791,19.3915048 C1.92511875,19.337182 2.1522223,19.1884528 2.2088991,19.1589995 C3.8199273,18.3207517 5.53588684,17.9962781 7.34984177,18.1291104 C8.15609901,18.188212 8.92807273,18.421595 9.72095345,18.546235 C10.8082167,18.717298 11.8962725,18.8847525 13.0026592,18.8558844 C13.4680629,18.843791 13.9305932,18.7988309 14.3409055,18.5536471 C14.8725973,18.2358053 14.9293732,17.7086699 14.4850747,17.2885219 C14.344968,17.1560798 14.1825672,17.0564068 14.0130322,16.9659014 C13.5090843,16.6972135 12.9684748,16.5254678 12.4105253,16.4162371 C10.31388,16.0057444 8.28689163,15.3711337 6.30250995,14.5975466 C5.71780749,14.3696251 5.15480471,14.0945004 4.58962205,13.8226916 C2.74703147,12.9367529 1.66303808,11.4645771 1.19773342,9.53899663 C0.665248921,7.33487792 0.989456084,5.27022337 2.54390656,3.53940502 C4.2592716,1.62942889 6.43815776,0.498794013 9.01556506,0.131505914 C10.0117689,-0.0104939457 12.2415849,0.0266639847 12.2982617,0.0302724976" id="Fill-47" fill="#5AB031"></path>
                <g id="Group-51" transform="translate(0.000000, 20.707906)">
                    <mask id="mask-7" fill="white">
                        <use xlink:href="#path-6"></use>
                    </mask>
                    <g id="Clip-50"></g>
                    <path d="M-1.98170639e-05,0.563722108 C0.460826,0.295814406 0.9258334,0.161519209 1.40768531,0.0855453826 C3.114529,-0.183532648 4.70247032,0.202870816 6.21936746,0.954124195 C7.09458808,1.38763338 7.91035751,1.92237599 8.74604309,2.42230132 C10.6936641,3.58746088 12.8047759,4.14668286 15.0797748,4.12259359 C15.1757885,4.12161832 15.2718022,4.12249607 15.3777244,4.12249607 C14.3632889,4.59940494 10.2090378,4.45126085 7.34656205,3.90900864 C4.62052676,3.39250366 2.30490287,2.04838136 -1.98170639e-05,0.563722108" id="Fill-49" fill="#65C2D0" mask="url(#mask-7)"></path>
                </g>
                <path d="M21.8438341,21.618874 C21.7765552,21.6703684 21.6875766,21.7235209 21.6607244,21.738345 C21.0730494,22.0771551 20.4964719,22.4377138 19.8613351,22.687774 C18.8087517,23.1021679 17.7013742,23.2127639 16.5803229,23.284349 C14.8451408,23.3952376 13.1913077,23.1323038 11.6088161,22.4084556 C10.8329781,22.0535535 10.0555547,21.7019673 9.28467088,21.3366298 C8.03421416,20.7441509 6.79475591,20.1257299 5.45641051,19.7367907 C3.88095394,19.2788996 2.38318027,19.4306522 0.977655022,20.2932819 C0.902845606,20.3392173 0.760658174,20.4338188 0.621344216,20.5499739 C0.740048428,20.5186677 0.83229686,20.486191 0.85578008,20.4801443 C2.19154926,20.1388961 3.50750138,20.2748492 4.81146417,20.6456483 C6.02555658,20.9910903 7.10548747,21.6115594 8.15797172,22.2760134 C10.0336568,23.4603859 12.0296315,24.2786406 14.2895694,24.3902119 C15.8611617,24.4678437 17.3982722,24.3451543 18.8713736,23.7667194 C19.9742923,23.3336978 20.9465175,22.7089375 21.7082854,21.7954961 L21.7082854,21.7953985 C21.7857701,21.7085992 21.85295,21.611852 21.8438341,21.618874" id="Fill-52" fill="#008388"></path>
                <mask id="mask-9" fill="white">
                    <use xlink:href="#path-8"></use>
                </mask>
                <g id="Clip-55"></g>
                <polygon id="Fill-54" fill="#004F75" mask="url(#mask-9)" points="0.123163051 27.8009588 48 27.8009588 48 27.3094208 0.123163051 27.3094208"></polygon>
                <path d="M47.1018808,0.0091773261 L47.1018808,0.0091773261 L30.9517665,9.75273724e-06 L30.9015302,9.75273724e-06 C30.8882528,0.00147266338 30.8750745,0.00352073828 30.861797,0.0050811763 C30.858329,0.00537375843 30.8548611,0.00527623105 30.8514922,0.00566634056 C30.8394038,0.0071292512 30.8277117,0.00956743561 30.8156233,0.0110303463 C30.6406386,0.0319987321 30.466942,0.0571607952 30.2954254,0.0882720282 C30.2943354,0.088467083 30.2932455,0.0885646104 30.2922546,0.0887596651 C30.1206389,0.119968426 29.951302,0.157321411 29.7837488,0.198575491 C29.7660125,0.202964223 29.7480781,0.206865318 29.7304409,0.211351577 C29.5712108,0.251727911 29.4145569,0.297370723 29.2596865,0.346719575 C29.2355097,0.354521765 29.2111347,0.361933846 29.187057,0.369931091 C29.03615,0.419670053 28.887423,0.474090329 28.7409749,0.532509227 C28.7158072,0.542652074 28.6906395,0.552892449 28.66567,0.563230351 C28.5199155,0.623209687 28.37644,0.687285173 28.2358379,0.755944446 C28.2139401,0.766672457 28.1924386,0.777888106 28.1706398,0.788811172 C28.0273624,0.860591321 27.886364,0.936175037 27.7491308,1.01702523 C27.7357543,1.02492495 27.7227741,1.03340983 27.7093976,1.04130955 C27.5676065,1.12625589 27.4286889,1.21520086 27.294032,1.30970489 C27.2912576,1.31165544 27.2883841,1.31341093 27.2857088,1.31536148 C27.15125,1.40996303 27.0214483,1.51051376 26.8947181,1.61467299 C26.8802517,1.62666886 26.8653889,1.63807956 26.8509224,1.65017296 C26.7306328,1.75091874 26.614703,1.85663841 26.502043,1.96616166 C26.4841086,1.98361906 26.465976,2.00078388 26.4483388,2.01843633 C26.3387504,2.12737441 26.2334227,2.24070122 26.1317612,2.35792913 C26.1143222,2.37821482 26.0970813,2.39850052 26.0799396,2.41888374 C25.9792689,2.53815972 25.8825616,2.66123927 25.7904123,2.7889026 C25.7764412,2.8081155 25.7632629,2.82781603 25.74949,2.8473215 C25.6561517,2.97986121 25.5666776,3.11600942 25.4828514,3.25752165 C25.47542,3.27020021 25.4684841,3.2833664 25.4611517,3.29604496 C25.3759384,3.44214097 25.2956793,3.59233313 25.2212662,3.74759671 C25.21869,3.75296072 25.2158165,3.75803214 25.2133394,3.76339615 C25.1395208,3.91865973 25.072341,4.0795799 25.009719,4.24410858 C25.0021885,4.2641017 24.9940636,4.28360717 24.9866322,4.30369781 C24.9279736,4.46256991 24.8754584,4.62622084 24.8276002,4.79348029 C24.8198716,4.82069043 24.8119447,4.84770552 24.8044143,4.87520824 C24.7592313,5.04139489 24.7194981,5.21177521 24.6855119,5.38605663 C24.6826384,5.40029563 24.6783777,5.41355935 24.6757024,5.42789588 C24.6746125,5.43335741 24.6755043,5.43862389 24.6745134,5.44418295 C24.6227909,5.72028295 24.583454,6.00516042 24.5610607,6.30135106 L29.749168,6.2990104 C30.5144039,6.30798292 30.7694495,7.01642178 30.4597088,7.88617092 L29.2249076,12.414367 L29.2342216,12.3802324 C30.1273767,12.0027039 32.4863008,10.8895265 35.533868,7.49157516 C37.4880286,5.3129111 39.355886,2.36446346 40.9869294,0.00566634056 L41.3845588,0.00595892269 C39.5513813,2.86487643 37.5223122,6.75699896 36.3811465,9.21322593 C34.8796076,12.4447955 34.2310942,17.5163166 34.1947299,20.2063167 C34.1762009,21.5764788 34.2846003,23.8368708 34.3553472,25.1371058 L34.3506902,25.1463709 C34.3497984,25.123452 34.3485103,25.0961443 34.3474204,25.0707872 C34.3486094,25.0989726 34.3499966,25.1287185 34.3508884,25.153783 L38.5417019,9.76864434 L39.3378524,6.84623651 C39.4266329,6.52030002 39.7266632,6.29345134 40.0695975,6.29335381 L41.3417539,6.29267112 L42.1658465,6.29218349 L42.2393678,6.29218349 C42.2596803,6.2886725 42.2792992,6.28399119 42.2996117,6.28038267 C42.3037733,6.27969998 42.308034,6.27999256 42.3120965,6.27930987 C42.3285446,6.27628652 42.3437047,6.27160521 42.3600538,6.26858186 C42.5382092,6.23483739 42.7130947,6.19650913 42.8828279,6.15145148 C42.8877822,6.15018363 42.8928355,6.14920835 42.8977898,6.14784297 C43.0695046,6.1020051 43.2354725,6.04914526 43.3984679,5.99238433 C43.422942,5.98389945 43.4477133,5.9759022 43.4719892,5.96712474 C43.6267605,5.91133908 43.777172,5.85038447 43.9240164,5.78533371 C43.9511658,5.77333784 43.978117,5.76114692 44.0049691,5.74885847 C44.1505255,5.68214975 44.2924156,5.61163745 44.4299461,5.53644385 C44.4506549,5.52513067 44.4707692,5.51323233 44.4912799,5.5017241 C44.63426,5.42165413 44.7740694,5.33826822 44.9082309,5.24961583 C44.9084291,5.24951831 44.9085281,5.24942078 44.9087263,5.24922572 C45.0433833,5.16037828 45.1721942,5.06636189 45.2980325,4.96971226 C45.3157688,4.95605843 45.3338023,4.94289224 45.3513404,4.92914088 C45.4697474,4.83609976 45.5837946,4.7393526 45.6942747,4.6399722 C45.7147854,4.62153953 45.735197,4.60310686 45.7554104,4.58447913 C45.8640079,4.48441604 45.9689392,4.38171971 46.0696099,4.27609756 C46.0854636,4.25932286 46.1008218,4.24225556 46.1166754,4.22538333 C46.2203187,4.11439717 46.3206921,4.00136295 46.4156158,3.88511031 C46.4184893,3.88169685 46.4210655,3.87808834 46.4238399,3.87457736 C46.517971,3.75900742 46.6070487,3.64051165 46.6925593,3.52045545 C46.7039541,3.50446096 46.7158444,3.48875906 46.727041,3.47276457 C46.8091827,3.35543913 46.8866675,3.23606562 46.9606842,3.11532673 C46.9742589,3.09328554 46.9877345,3.07114683 47.0010119,3.04891059 C47.0729479,2.92865933 47.1412176,2.8070427 47.2052268,2.6841582 C47.2157298,2.66377498 47.2258365,2.64339176 47.2361414,2.62300854 C47.3011413,2.4953452 47.3628715,2.36670659 47.419152,2.23699518 C47.4223227,2.22968063 47.4251962,2.22217102 47.4283669,2.21485647 C47.4835574,2.08670549 47.5339918,1.95767678 47.5809583,1.82816042 C47.5868043,1.81216593 47.5930467,1.79626897 47.5986946,1.78027448 C47.6440756,1.65192845 47.6847006,1.52328984 47.7219567,1.39445618 C47.7286945,1.37095208 47.7356305,1.34764304 47.742071,1.32423647 C47.7773454,1.1971583 47.8088545,1.07008012 47.8362021,0.943197008 C47.8381838,0.934322017 47.8408591,0.925544553 47.8428408,0.916669562 C47.8434353,0.913256104 47.8429399,0.909940173 47.8437325,0.906429188 C47.9070481,0.604484431 47.9491593,0.304100112 47.9675892,0.00966496298 L47.1018808,0.0091773261 Z" id="Fill-56" fill="#5AB031" mask="url(#mask-9)"></path>
                <path d="M40.9869492,0.00570535151 C39.3559058,2.36450247 37.4879494,5.31295011 35.5338878,7.49161417 C32.4863207,10.889468 30.1272974,12.0026454 29.2342414,12.3801739 L29.2249274,12.4143085 C29.9227853,13.0255126 30.589035,13.7051808 31.2067328,14.4676499 C33.9214724,17.8182029 34.2991856,23.7790761 34.3505118,25.1463124 L34.355367,25.1371448 C34.284521,23.8369098 34.1762208,21.5765178 34.1947497,20.2062582 C34.231114,17.5162581 34.8796274,12.444737 36.3811664,9.21326494 C37.522332,6.75703797 39.5514011,2.86481791 41.3845786,0.00570535151 L40.9869492,0.00570535151 Z" id="Fill-57" fill="#00A339" mask="url(#mask-9)"></path>
            </g>
        </g>
    </g>
</svg>