<svg xmlns="http://www.w3.org/2000/svg" xmlns:xlink="http://www.w3.org/1999/xlink" width="24" height="17" viewBox="0 0 24 17">
    <defs>
        <filter id="30t6dxpyca" color-interpolation-filters="auto">
            <feColorMatrix in="SourceGraphic" values="0 0 0 0 0.607843 0 0 0 0 0.607843 0 0 0 0 0.607843 0 0 0 1.000000 0"/>
        </filter>
        <path id="cpwhzmgh0b" d="M0 0L8.582 0 8.582 11 0 11z"/>
    </defs>
    <g fill="none" fill-rule="evenodd">
        <g>
            <g>
                <g filter="url(#30t6dxpyca)" transform="translate(-435 -596) translate(395 117) translate(40 453)">
                    <g>
                        <g>
                            <path fill="#FEFEFE" fill-rule="nonzero" d="M9.4 10.06c2.807-2.374 2.885-6.632.023-9.13 1.921-1.506 5.182-1.14 7.04.791 1.998 2.076 2.054 5.254.131 7.42-1.807 2.037-5.031 2.462-7.193.919" transform="translate(0 26) translate(3 3)"/>
                            <g transform="translate(0 26) translate(3 3)">
                                <mask id="ps6wyijshc" fill="#fff">
                                    <use xlink:href="#cpwhzmgh0b"/>
                                </mask>
                                <path fill="#FEFEFE" fill-rule="nonzero" d="M8.582.912c-2.852 2.442-2.81 6.776-.008 9.156-1.93 1.5-5.172 1.149-7.017-.759-1.963-2.03-2.085-5.208-.281-7.308C3.138-.166 6.326-.642 8.582.912" mask="url(#ps6wyijshc)"/>
                            </g>
                            <path fill="#FEFEFE" fill-rule="nonzero" d="M8.998 1.201c2.827 2.163 2.817 6.641.003 8.579C6.28 7.834 6.074 3.434 8.998 1.2" transform="translate(0 26) translate(3 3)"/>
                        </g>
                        <path d="M0 0H24V17H0z" transform="translate(0 26)"/>
                    </g>
                </g>
            </g>
        </g>
    </g>
</svg>
