<svg xmlns="http://www.w3.org/2000/svg" xmlns:xlink="http://www.w3.org/1999/xlink" width="27" height="17" viewBox="0 0 27 17">
    <defs>
        <filter id="vbznllarha" color-interpolation-filters="auto">
            <feColorMatrix in="SourceGraphic" values="0 0 0 0 0.607843 0 0 0 0 0.607843 0 0 0 0 0.607843 0 0 0 1.000000 0"/>
        </filter>
        <path id="iwa6r4177b" d="M0 0L21 0 21 7.302 0 7.302z"/>
    </defs>
    <g fill="none" fill-rule="evenodd">
        <g>
            <g>
                <g filter="url(#vbznllarha)" transform="translate(-659 -596) translate(395 117) translate(40 453)">
                    <g>
                        <g>
                            <path d="M0 0H27V17H0z" transform="translate(0 26) translate(224)"/>
                            <g>
                                <g transform="translate(0 26) translate(224) translate(3 3) translate(0 1.83)">
                                    <mask id="alh3hjwddc" fill="#fff">
                                        <use xlink:href="#iwa6r4177b"/>
                                    </mask>
                                    <path fill="#FFF" d="M20.308 3.801c-.002-.348-.029-.591-.073-.833-.133-.725-.518-1.292-1.084-1.743-.29-.232-.629-.374-.987-.466-.97-.248-1.845-.086-2.6.599-.416.378-.717.828-.893 1.366-.3.914-.194 1.784.272 2.612.32.569.814.966 1.398 1.222.777.341 1.564.321 2.33-.075.253-.13.486-.286.683-.489.623-.636.938-1.403.954-2.193zm-13.91-.075c.002-.48-.068-.866-.195-1.243-.174-.515-.508-.918-.917-1.259-.424-.355-.933-.52-1.475-.586-.902-.108-1.666.169-2.3.816C.989 1.99.693 2.632.613 3.376c-.074.682.081 1.317.411 1.906.338.604.873.991 1.486 1.277.201.093.416.143.637.166.535.055 1.05.008 1.542-.237.603-.3 1.045-.746 1.346-1.346.238-.474.366-.969.364-1.416zM14.292.002c-.233.134-.403.322-.556.53-.16.218-.333.427-.492.647-.328.456-.68.894-1.02 1.341-.1.129-.097.129-.196.003-.175-.22-.352-.438-.526-.659-.04-.053-.062-.05-.098.003-.204.305-.41.608-.616.91-.04.055-.021.094.015.141.168.222.33.446.5.667.053.07.053.121.001.197-.308.453-.652.879-.965 1.329-.161.23-.327.457-.493.683-.123.169-.138.343-.043.53.143.286.304.397.588.393.174-.003.285-.106.386-.245.238-.328.493-.645.738-.968.183-.24.361-.483.54-.727.051-.072.087-.073.141-.001.442.584.887 1.165 1.33 1.749.092.123.33.194.515.157.372-.073.57-.558.387-.872-.018-.03-.037-.061-.058-.09l-1.25-1.703c-.062-.086-.114-.179-.18-.262-.048-.062-.045-.11 0-.171.218-.291.439-.579.644-.879.325-.475.691-.922 1.025-1.391.358-.507.813-.889 1.378-1.141.277-.124.568-.173.872-.173 1.331.003 2.663.002 3.995.002.146 0 .146 0 .146.148v7.009c0 .14-.003.143-.144.143l-14.25-.009h-.078c.074-.051.13-.086.185-.126.221-.159.375-.381.527-.597.172-.246.361-.476.54-.715.28-.376.564-.75.846-1.125.075-.1.083-.101.16-.001.179.229.358.46.534.691.042.055.067.07.112 0 .192-.303.395-.598.606-.89.042-.056.029-.101-.01-.153-.168-.228-.332-.462-.502-.688-.052-.07-.053-.121 0-.19.19-.252.384-.503.565-.762.28-.408.584-.798.87-1.201.251-.351.082-.818-.335-.937-.204-.058-.411.006-.543.179-.437.57-.87 1.143-1.304 1.715-.074.098-.074.099-.148.004-.293-.376-.592-.748-.878-1.13-.129-.173-.258-.347-.389-.519-.21-.274-.497-.325-.778-.145-.25.161-.334.502-.191.777.032.059.07.115.11.17.217.291.443.576.65.875.231.337.484.657.728.986.055.074.05.123 0 .196-.343.49-.709.963-1.054 1.449-.291.41-.588.812-.918 1.19-.374.426-.832.717-1.368.886-.136.043-.278.061-.421.061-1.318.002-2.635.006-3.953.009-.169 0-.169 0-.169-.171V.154C0 .002 0 .002.151.002h14.141z" mask="url(#alh3hjwddc)"/>
                                </g>
                                <path fill="#FFF" d="M11.089 1.217C7.062 1.19 3.61 1.196.16 1.196c-.154 0-.156-.001-.125-.153C.106.7.235.39.54.186.755.04 1 .005 1.252.005c2.232-.002 4.465-.01 6.697 0 2.112.012 4.223-.01 6.334.002 1.845.009 3.689.005 5.534.009.26 0 .5.06.71.219.304.228.414.555.455.916.006.054-.018.069-.067.066-.028-.002-.057 0-.085 0h-9.741zM10.508 9.792h9.41c.329 0 .656.008.984.007.08 0 .103.015.088.103-.068.38-.221.704-.56.916-.133.082-.28.124-.433.139l-.075.003c-1.981.052-3.963.053-5.945.022-1.914-.03-3.828-.011-5.742-.021-2.357-.013-4.714-.01-7.07-.01-.566.002-.948-.367-1.07-.773-.031-.106-.044-.216-.066-.324-.012-.056.012-.082.065-.083H.19c.099.003.199.008.298.008h10.02v.013zM5.289 5.54c-.005.59-.24 1.069-.71 1.425-.6.456-1.25.492-1.91.16-.634-.316-.984-1.037-.907-1.745.05-.47.232-.873.565-1.196.51-.495 1.507-.76 2.21-.202.439.348.68.81.739 1.367.007.063.009.128.013.192M19.194 5.593c-.007.576-.249 1.025-.686 1.404-.468.408-1.439.525-2.034.105-.593-.418-.883-.98-.8-1.72.116-1.014.913-1.695 1.926-1.666.576.016.99.322 1.286.805.204.33.312.683.308 1.072" transform="translate(0 26) translate(224) translate(3 3)"/>
                            </g>
                        </g>
                    </g>
                </g>
            </g>
        </g>
    </g>
</svg>
