<svg xmlns="http://www.w3.org/2000/svg" width="44" height="17" viewBox="0 0 44 17">
    <defs>
        <filter id="yt2jxqo1da" color-interpolation-filters="auto">
            <feColorMatrix in="SourceGraphic" values="0 0 0 0 0.607843 0 0 0 0 0.607843 0 0 0 0 0.607843 0 0 0 1.000000 0"/>
        </filter>
    </defs>
    <g fill="none" fill-rule="evenodd">
        <g>
            <g>
                <g filter="url(#yt2jxqo1da)" transform="translate(-597 -596) translate(395 117) translate(40 453)">
                    <g>
                        <g>
                            <g fill="#FFF" fill-rule="nonzero">
                                <path d="M7.504 1.182C7.367.897 7.15.662 6.88.486 6.6.31 6.269.184 5.89.11 5.504.038 5.06.005 4.543 0L2.163.002c-.248.003-.49.203-.549.45L.012 7.674c-.058.244.097.448.345.448h1.14c.248 0 .493-.198.548-.448l.39-1.754c.053-.244.297-.448.547-.448h.327c1.394-.001 2.474-.296 3.25-.887.78-.59 1.164-1.372 1.164-2.34 0-.424-.068-.78-.22-1.063zm-2.46 2.36c-.344.26-.823.391-1.441.391h-.28c-.248 0-.4-.203-.346-.45l.343-1.534c.048-.245.298-.45.544-.447l.373-.003c.436 0 .77.078.992.23.22.149.33.387.329.703.006.48-.17.848-.513 1.11zm15.677-.944l-4.544 7.952c-.146.248-.469.448-.715.448l-1.18.002c-.246 0-.326-.202-.177-.45l1.01-1.82s.082-.106.01-.699c-.156-1.075-.932-5.643-.932-5.643-.055-.248.096-.45.342-.45l1.021-.002c.313 0 .565.213.621.462l.509 3.169.19.003c.158-.292 1.79-3.192 1.79-3.192.157-.245.472-.45.718-.45 0 0 1.097.003 1.367 0 .406-.01-.03.67-.03.67zm7.49-1.39c-.142-.286-.357-.517-.628-.697-.277-.18-.606-.305-.99-.377-.378-.07-.83-.107-1.342-.108l-2.384.002c-.249.004-.487.203-.544.448l-1.604 7.225c-.058.245.101.448.344.448l1.142-.002c.242.002.49-.2.548-.447l.386-1.754c.057-.244.302-.45.548-.448h.327c1.396 0 2.478-.297 3.257-.886.77-.596 1.16-1.375 1.16-2.344-.004-.422-.075-.778-.22-1.06zm-2.459 2.363c-.344.256-.824.387-1.438.387h-.284c-.245.003-.404-.204-.35-.45l.346-1.53c.05-.245.298-.45.545-.448l.37-.003c.438.003.767.078.991.229.224.151.33.388.332.703.002.48-.17.85-.512 1.112zm-12.75-1.357c-.43-.25-1.11-.376-2.038-.376-.46 0-.917.037-1.38.11-.34.055-.374.065-.584.112-.434.098-.502.546-.502.546l-.14.594c-.078.379.133.364.22.333.19-.059.295-.119.682-.208.37-.087.76-.153 1.069-.148.456 0 .804.05 1.037.151.23.103.344.28.344.536l-.02.167-.165.105c-.647.042-1.114.104-1.681.19-.555.079-1.042.22-1.446.41-.435.198-.757.464-.982.802-.218.34-.327.751-.327 1.234 0 .455.158.83.465 1.12.308.286.715.425 1.202.425.308-.001.546-.026.715-.068l.553-.197.467-.268.43-.294.006.008-.043.19-.002.007v.002c-.047.23.088.42.305.442l.004.005h1.059l.015-.007c.227-.028.44-.217.49-.442l.832-3.724.043-.303.02-.285c.003-.528-.217-.919-.648-1.169zm-1.839 4.188l-.177.242-.449.24c-.21.088-.411.133-.596.133-.281 0-.501-.042-.65-.128l-.22-.443c0-.24.053-.43.167-.576l.483-.34c.207-.072.46-.133.752-.175.26-.034.776-.095.843-.097l.079.144c-.015.082-.161.714-.232 1zm22.55-4.183c-.432-.25-1.11-.377-2.037-.377-.459 0-.917.037-1.378.113-.342.052-.376.063-.587.11-.433.097-.5.546-.5.546l-.14.593c-.078.38.128.362.224.333.19-.059.293-.116.676-.209.368-.086.761-.15 1.07-.148.455 0 .804.05 1.036.152.23.103.344.282.344.536l-.018.166-.163.107c-.653.04-1.122.102-1.683.187-.553.08-1.042.22-1.447.412-.433.199-.76.464-.982.803-.22.34-.327.75-.327 1.23 0 .457.156.833.467 1.122.31.284.712.427 1.2.427.306-.004.544-.024.714-.07l.551-.194.472-.268.427-.298.007.01-.039.19-.004.004.002.003c-.052.23.083.422.303.442l.001.005h1.059l.017-.006c.225-.029.438-.218.485-.446l.834-3.719.044-.305.024-.285c0-.526-.217-.916-.651-1.166zM31.88 6.407l-.185.245-.444.238c-.211.087-.412.133-.594.133-.29 0-.504-.043-.649-.129l-.223-.44c0-.241.054-.43.163-.578.11-.14.28-.256.489-.34.204-.072.456-.13.75-.174.26-.034.773-.097.84-.098l.08.144c-.012.082-.159.712-.227.999zM37.99.534h.004l-1.527 7.161-.054.086c-.09.201-.285.365-.492.365h-1.06l-.018-.025c-.203-.032-.334-.199-.287-.42l-.001-.005.046-.206L36.028.774l.051-.234.057-.091c.092-.198.28-.359.49-.359h1.021c.245-.003.395.197.343.444z" transform="translate(0 26) translate(162) translate(3 3)"/>
                            </g>
                            <path d="M0 0H44V17H0z" transform="translate(0 26) translate(162)"/>
                        </g>
                    </g>
                </g>
            </g>
        </g>
    </g>
</svg>
