<?xml version="1.0" encoding="UTF-8"?>
<svg width="41px" height="17px" viewBox="0 0 41 17" version="1.1" xmlns="http://www.w3.org/2000/svg" xmlns:xlink="http://www.w3.org/1999/xlink">
    <title>rappi_isotipo</title>
    <g id="Page-1" stroke="none" stroke-width="1" fill="none" fill-rule="evenodd">
        <g id="modal-V3" transform="translate(-781.000000, -596.000000)">
            <g id="rappi_isotipo" transform="translate(781.000000, 596.000000)">
                <rect id="Rectangle" x="0" y="0" width="41" height="17"></rect>
                <path d="M26.1066439,3 C27.4419195,3 28.853287,4.1355057 30.2952748,5.30575455 L30.8735952,5.77309784 C32.129694,6.77838313 33.4042382,7.69952506 34.6676275,7.81996795 C35.6034874,7.81996795 36.7142782,7.3118577 38,6.29563721 C36.1683447,11.5611935 32.9462696,14.1276866 28.3337744,13.9951164 C24.6157668,13.6175161 22.0010793,12.0789938 20.4897119,9.37954956 L20.5,9.397 L20.3554736,9.64562425 C18.8233823,12.1802721 16.2602996,13.6301028 12.6662256,13.9951164 C8.05373044,14.1276866 4.83165525,11.5611935 3,6.29563721 C4.28572181,7.3118577 5.39651263,7.81996795 6.33237247,7.81996795 C7.59576177,7.69952506 8.87030598,6.77838313 10.1264048,5.77309784 L10.7047252,5.30575455 C12.146713,4.1355057 13.5580805,3 14.8933561,3 C16.6706927,3 18.5396596,3.9266397 20.5002569,5.77991911 C22.4609778,3.92632369 24.3296104,3 26.1066439,3 Z" id="Combined-Shape" fill="#CDCDCD"></path>
            </g>
        </g>
    </g>
</svg>