<svg xmlns="http://www.w3.org/2000/svg" xmlns:xlink="http://www.w3.org/1999/xlink" width="66" height="17" viewBox="0 0 66 17">
    <defs>
        <path id="43p5b6n3qb" d="M0 0L8.255 0 8.255 10.865 0 10.865z"/>
        <path id="uo6qyfxc2d" d="M0 0L6.783 0 6.783 2.606 0 2.606z"/>
        <path id="6n5zt7ajyf" d="M0 0L1.476 0 1.476 1.477 0 1.477z"/>
        <filter id="ozrfo1ms2a" color-interpolation-filters="auto">
            <feColorMatrix in="SourceGraphic" values="0 0 0 0 0.607843 0 0 0 0 0.607843 0 0 0 0 0.607843 0 0 0 1.000000 0"/>
        </filter>
    </defs>
    <g fill="none" fill-rule="evenodd">
        <g>
            <g>
                <g filter="url(#ozrfo1ms2a)" transform="translate(-704 -596) translate(395 117) translate(40 453)">
                    <g>
                        <g>
                            <path d="M0 0H66V17H0z" transform="translate(0 26) translate(269)"/>
                            <g>
                                <g transform="translate(0 26) translate(269) translate(3 3) translate(49.598)">
                                    <mask id="f1y04qneuc" fill="#fff">
                                        <use xlink:href="#43p5b6n3qb"/>
                                    </mask>
                                    <path fill="#FFF" d="M3.232.896c.574-.368 1.13-.65 1.746-.783.785-.17 1.56-.185 2.297.196.63.326.974.842.975 1.557.004 2.92 0 5.842.005 8.763.001.182-.044.236-.231.234-.916-.01-1.832-.012-2.748.001-.223.004-.256-.079-.255-.276.005-2.372.003-4.745.003-7.116 0-.549-.256-.81-.815-.829-.563-.02-.957.302-.974.819-.014.458-.003.917-.003 1.375 0 1.915-.003 3.829.004 5.743.002.213-.038.289-.273.285-.895-.015-1.792-.01-2.687-.003-.194.002-.276-.03-.276-.255C.008 7.237.008 3.87 0 .5 0 .274.084.244.277.246 1.153.255 2.03.263 2.905.24c.287-.006.366.089.328.348-.01.078 0 .159 0 .307" mask="url(#f1y04qneuc)"/>
                                </g>
                                <path fill="#FFF" d="M37.763 7.227l.417-2.286c.266-1.479.533-2.958.796-4.437.031-.175.085-.265.297-.26.744.016 1.489.006 2.25.006l-1.037 5.489c-.308 1.632-.623 3.265-.924 4.898-.032.178-.095.226-.266.226-1.285-.007-2.57-.009-3.853 0-.196.002-.24-.067-.27-.249-.428-2.794-.865-5.587-1.3-8.38-.09-.57-.172-1.142-.277-1.71-.042-.23.013-.284.245-.28.796.015 1.593.012 2.389.001.196-.003.269.046.303.25.364 2.109.738 4.215 1.11 6.322l.072.41h.048M26.974 5.548c0-1.675.005-3.349-.005-5.024-.001-.227.062-.28.284-.28 1.811.01 3.623.01 5.435 0 .211 0 .297.035.29.274-.02.608-.016 1.216 0 1.824.005.22-.049.294-.278.288-.687-.015-1.375 0-2.06-.009-.188-.002-.266.042-.26.247.013.497.012.996 0 1.495-.004.185.058.238.24.236.696-.01 1.393.003 2.09-.008.209-.004.273.057.267.267-.015.498-.014.997 0 1.495.004.191-.044.257-.247.254-.696-.014-1.393.003-2.09-.01-.213-.005-.266.061-.26.267.014.487.013.976 0 1.465-.005.19.044.255.245.252.697-.014 1.394.003 2.091-.01.216-.005.266.061.261.268-.014.587-.01 1.176-.002 1.764.003.18-.027.261-.24.26-1.841-.008-3.683-.01-5.525.002-.251.001-.238-.12-.237-.293.002-1.674.001-3.35.001-5.024M42.212 5.555c0-1.675.003-3.35-.005-5.025 0-.217.045-.288.277-.287 1.822.011 3.645.011 5.466 0 .231 0 .279.066.274.283-.015.628-.01 1.257-.002 1.884.004.173-.05.22-.218.218-.727-.008-1.454.004-2.18-.008-.213-.004-.273.062-.266.27.014.469.015.938-.001 1.406-.008.227.048.31.292.305.707-.017 1.415-.001 2.121-.01.186-.002.261.037.254.245-.016.517-.012 1.037-.002 1.555.005.172-.05.215-.216.213-.737-.008-1.474.002-2.211-.006-.178-.003-.243.038-.237.228.013.508.013 1.017 0 1.526-.006.191.06.23.238.227.727-.01 1.454.004 2.18-.008.194-.004.252.049.247.246-.013.608-.01 1.216 0 1.824.001.162-.037.222-.212.222-1.862-.007-3.724-.009-5.586.001-.246.002-.213-.135-.213-.284V5.555M16.145 10.859c-.906 0-1.813-.005-2.718.003-.177.002-.239-.035-.239-.228.007-3.39.007-6.778.002-10.168 0-.168.043-.22.215-.22 1.832.006 3.665.005 5.497 0 .163 0 .223.036.221.212-.01.648-.012 1.297.001 1.943.003.198-.07.23-.241.227-.699-.008-1.396.002-2.092-.007-.187-.003-.263.038-.256.243.015.488.014.977 0 1.465-.006.204.044.275.26.27.687-.012 1.374.004 2.062-.01.205-.002.274.048.267.264-.016.507-.014 1.016 0 1.524.005.191-.055.23-.235.228-.707-.01-1.414.003-2.12-.008-.184-.002-.239.045-.234.23.013.51.015 1.018 0 1.526-.006.196.064.229.238.226.707-.01 1.414 0 2.12-.006.153-.001.234.012.23.201-.012.628-.01 1.256 0 1.885.004.188-.077.203-.23.202-.915-.004-1.832-.002-2.748-.002M20.222 5.555c0-1.664.005-3.328-.005-4.992-.002-.238.043-.325.303-.32.925.017 1.852.014 2.777 0 .227-.002.281.061.28.283-.008 2.57-.001 5.142-.01 7.712 0 .265.055.354.336.345.676-.023 1.353-.001 2.03-.012.187-.003.234.054.231.236-.01.608-.012 1.216 0 1.823.004.19-.057.233-.237.232-1.822-.005-3.643-.008-5.464.003-.241.002-.243-.108-.243-.288.004-1.673.002-3.347.002-5.022M7.766.086c0 .923-.002 1.82.002 2.716 0 .105-.033.162-.13.202-1.48.604-2.015 1.83-2.145 3.308-.126 1.42-.13 2.845-.136 4.268-.002.284-.086.34-.35.334-.805-.016-1.612-.007-2.418-.003-.138.001-.215-.012-.215-.187.01-1.807.125-3.608.483-5.376.4-1.97 1.619-3.377 3.28-4.432.51-.324 1.041-.61 1.629-.83" transform="translate(0 26) translate(269) translate(3 3)"/>
                                <g transform="translate(0 26) translate(269) translate(3 3) translate(0 .217)">
                                    <mask id="wm63s9co3e" fill="#fff">
                                        <use xlink:href="#uo6qyfxc2d"/>
                                    </mask>
                                    <path fill="#FFF" d="M6.783.003C5.747.567 4.854 1.192 4.078 1.976c-.057.056-.126.107-.16.176-.202.404-.536.467-.956.452-.895-.03-1.791-.014-2.686-.004-.196.002-.28-.027-.276-.254C.015 1.64.01.931.003.224.001.062.037 0 .214 0 2.38.005 4.547.003 6.783.003" mask="url(#wm63s9co3e)"/>
                                </g>
                                <path fill="#FFF" d="M9.813 6.453c-.527 0-1.056-.007-1.583.005-.188.004-.233-.058-.23-.238.012-.528.01-1.057.001-1.585-.002-.163.038-.224.213-.223 1.065.007 2.13.007 3.196 0 .183-.001.238.054.233.237-.01.519-.013 1.036.001 1.555.005.196-.05.258-.247.254-.529-.012-1.056-.005-1.584-.005" transform="translate(0 26) translate(269) translate(3 3)"/>
                                <g transform="translate(0 26) translate(269) translate(3 3) translate(58.524 9.523)">
                                    <mask id="bd6i89w18g" fill="#fff">
                                        <use xlink:href="#6n5zt7ajyf"/>
                                    </mask>
                                    <path fill="#FFF" d="M.445 1.152c.187.214.386.158.608.011C.78 1.197.824.902.657.816c-.076.11.067.357-.206.329 0-.28-.003-.56-.004-.839C.595.32.745.318.89.35c.191.042.256.218.144.337-.181.196-.005.283.048.426.22-.262.223-.577.02-.782C.919.142.676.135.453.31c-.305.245-.31.587-.007.841m1.03-.418c0 .44-.289.738-.718.743C.31 1.483.004 1.181 0 .735-.003.293.302-.005.757 0c.44.004.72.29.719.734" mask="url(#bd6i89w18g)"/>
                                </g>
                            </g>
                        </g>
                    </g>
                </g>
            </g>
        </g>
    </g>
</svg>
